<?xml version="1.0" encoding="utf-8"?>
<!-- Generator: Adobe Illustrator 25.4.1, SVG Export Plug-In . SVG Version: 6.00 Build 0)  -->
<svg version="1.1" id="Capa_1" xmlns="http://www.w3.org/2000/svg" xmlns:xlink="http://www.w3.org/1999/xlink" x="0px" y="0px"
	 viewBox="0 0 217 209" style="enable-background:new 0 0 217 209;" xml:space="preserve">
<style type="text/css">
	.st0{fill:#FFFFFF;}
	.st1{fill:#FBFBFB;}
	.st2{fill:#FDFDFD;}
	.st3{fill:#18365F;}
	.st4{fill:#033562;}
	.st5{fill:#17AF95;}
</style>
<g>
	<g>
		<path class="st3" d="M15.7,113.12c0-9.66-0.02-19.33,0.01-28.99c0.02-8.15,4.19-14.3,11.7-17.29c1.15-0.46,2.39-0.7,3.5-1.23
			c6.32-3.06,12.34-4.63,19.2-0.55c4.8,2.86,10.7,2.27,16.17,1.1c2.21-0.47,2.81-0.3,2.62,2.24c-0.76,9.85,1.86,18.85,7.89,26.69
			c1.65,2.15,0.85,2.88-1.05,3.88c-4.87,2.55-9.69,5.2-14.51,7.86c-9.68,5.34-14.47,13.62-14.63,24.61
			c-0.06,4.14-0.09,8.29,0.02,12.42c0.05,1.91-0.44,2.65-2.5,2.63c-8.56-0.11-17.12-0.15-25.68,0.02c-2.63,0.05-2.79-1.1-2.77-3.17
			C15.74,133.27,15.7,123.19,15.7,113.12z"/>
		<path class="st3" d="M201.28,113.05c0,10.08-0.08,20.15,0.06,30.23c0.04,2.49-0.51,3.3-3.14,3.24
			c-8.28-0.19-16.57-0.15-24.85-0.02c-2.34,0.04-3.03-0.62-3.01-2.98c0.03-5.37,0.39-10.76-0.28-16.13
			c-1.13-9-5.76-15.63-13.53-20.1c-5.12-2.95-10.32-5.79-15.57-8.49c-2.05-1.05-2.13-1.85-0.77-3.65
			c6.07-8.01,8.69-17.11,7.89-27.11c-0.16-2.01,0.3-2.41,2.18-1.99c8,1.79,15.6,0.72,22.66-3.51c1.44-0.86,2.65-0.9,4.23-0.26
			c4.07,1.65,8.28,2.96,12.37,4.55c7.54,2.93,11.73,9.11,11.75,17.23C201.3,93.73,201.28,103.39,201.28,113.05z"/>
		<path class="st3" d="M104.09,195.1c-15.77,0-31.08-0.03-46.39,0.04c-1.89,0.01-2.27-0.65-2.26-2.38
			c0.06-21.26-0.06-42.52,0.12-63.77c0.05-5.38,2.76-9.97,7.3-12.81c6.27-3.91,12.89-7.25,19.71-11.03
			C89.78,135.34,96.9,165.06,104.09,195.1z"/>
		<path class="st3" d="M112.89,195.1c7.19-30.04,14.31-59.77,21.54-89.97c6.83,3.79,13.48,7.1,19.7,11.07
			c4.9,3.13,7.36,8.11,7.37,14.04c0.03,20.57,0.02,41.13,0.01,61.7c0,1.54,0.61,3.24-2.24,3.22
			C143.96,195.04,128.65,195.1,112.89,195.1z"/>
		<path class="st3" d="M139.35,71.37c0.01,17.26-13.7,30.97-30.95,30.95C91.21,102.3,77.53,88.47,77.63,71.2
			c0.09-17.01,13.78-30.75,30.74-30.85C125.42,40.25,139.34,54.2,139.35,71.37z"/>
		<path class="st3" d="M179.1,35.86c0.1,15.35-14.68,26.05-29.01,21.03c-3.34-1.17-6.21-2.76-7.75-6.23
			c-0.66-1.48-1.82-2.75-2.85-4.03c-5.56-6.95-5.98-14.61-1.17-22.29c5.17-8.25,15.41-12.23,24.79-9.62
			C172.49,17.3,179.03,25.98,179.1,35.86z"/>
		<path class="st3" d="M37.86,36.05c-0.01-12.4,10.12-22.47,22.33-22.21c12.62,0.27,22.55,11.05,21.75,23.65
			c-0.17,2.64-0.77,5.07-2.82,7.06c-1.46,1.42-2.65,3.17-3.78,4.89c-5.14,7.79-12.99,10.56-22.04,7.69
			C43.92,54.16,37.87,45.9,37.86,36.05z"/>
		<path class="st3" d="M108.55,174.74c-6.15-14.91-4.4-30.33-4.58-45.57c-0.04-3.17-0.1-6.36,0.13-9.52
			c0.18-2.49,1.66-4.04,4.32-4.08c2.65-0.04,4.46,1.45,4.42,3.93C112.53,137.94,115.43,156.64,108.55,174.74z"/>
	</g>
</g>
</svg>
