<?xml version="1.0" encoding="utf-8"?>
<!-- Generator: Adobe Illustrator 25.4.1, SVG Export Plug-In . SVG Version: 6.00 Build 0)  -->
<svg version="1.1" id="Capa_1" xmlns="http://www.w3.org/2000/svg" xmlns:xlink="http://www.w3.org/1999/xlink" x="0px" y="0px"
	 viewBox="0 0 209 209" style="enable-background:new 0 0 209 209;" xml:space="preserve">
<style type="text/css">
	.st0{fill:#FFFFFF;}
	.st1{fill:#FBFBFB;}
	.st2{fill:#FDFDFD;}
	.st3{fill:#18365F;}
	.st4{fill:#033562;}
	.st5{fill:#17AF95;}
</style>
<g>
	<path class="st4" d="M165.82,20.32c1.36-1.31,2.56-2.42,3.99-1.06c1.62,1.54,0.25,2.81-0.95,4.09c2.06,0.49,3.89,0.88,5.7,1.36
		c2.23,0.6,2.73,2.29,1.12,3.94c-3.67,3.74-7.41,7.41-11.11,11.13c-0.87,0.87-1.78,1.11-3.02,0.75c-1.94-0.57-3.99-0.78-5.9-1.42
		c-1.63-0.55-2.69-0.16-3.75,1.09c-0.84,0.99-1.9,1.79-2.96,2.77c0.93,1.19,1.73,2.2,2.52,3.23c17.91,23.4,15.89,56.48-4.99,77.27
		c-7.99,7.96-14.27,16.83-17.43,27.74c-0.09,0.31-0.15,0.64-0.27,1.18c0.68,0.15,1.35,0.28,2.01,0.44c4.2,1.01,7.48,4.62,7.58,8.93
		c0.16,6.48,0.2,12.98-0.01,19.45c-0.17,5.21-4.64,9.14-10.11,9.27c-2.48,0.06-4.97,0.01-7.64,0.01c-0.97,5.08-3.44,9.15-7.93,11.81
		c-2.9,1.72-6.05,2.4-9.41,2.15c-7.41-0.55-12.35-5.11-14.91-13.96c-2.19,0-4.46,0-6.72,0c-6.84-0.02-11.03-4.16-11.06-10.99
		c-0.02-4.91,0.19-9.84-0.05-14.74c-0.3-5.95,2.02-10.95,9.7-12.43c-1.32-5.3-3.48-10.21-6.26-14.87
		c-2.77-4.64-6.14-8.79-10.03-12.54c-9.53-9.19-15.48-20.25-17.73-33.35c-4.07-23.68,7.49-48.46,28.38-60.54
		c23.1-13.36,51.1-10.12,70.61,8.16c0.28,0.26,0.57,0.51,1.01,0.9c1.27-1.3,2.47-2.58,3.74-3.79c0.58-0.56,0.51-1.07,0.33-1.76
		c-0.59-2.28-1.09-4.58-1.65-6.86c-0.3-1.24-0.08-2.25,0.89-3.19c3.65-3.57,7.23-7.23,10.86-10.82c1.9-1.88,3.54-1.37,4.19,1.28
		C164.99,16.63,165.36,18.34,165.82,20.32z M142.9,42.86c-11.83-12.51-31.1-18.55-49.29-14.62c-20.89,4.52-35.14,17.21-41.44,37.59
		c-6.28,20.31-1.82,38.86,12.97,54.23c9.03,9.38,16.34,19.49,19.48,32.31c13.3,0,26.5,0,39.75,0c3.08-12.27,9.59-22.34,18.47-31.18
		c13.9-13.84,18.96-30.65,15.48-49.93c-1.71-9.45-5.97-17.77-11.99-24.78c-2.32,2.29-4.58,4.52-6.85,6.76
		c16.99,19.66,13.49,47.47-4.08,62.97c-17.42,15.37-43.55,14.88-60.51-1.21C58.14,99.12,56.36,73.02,70.9,54.78
		c7.15-8.96,16.49-14.48,27.81-16.22c14.23-2.19,26.75,1.83,37.31,11.18C138.38,47.38,140.64,45.12,142.9,42.86z M132.05,60.42
		c12.82,15.68,9.63,36.31-3.33,47.92c-13.14,11.77-33.15,11.65-46.16-0.3c-13.11-12.05-14.81-31.92-4.2-46.13
		c10.29-13.78,33.32-19.97,50.52-4.91c1.39-1.38,2.77-2.76,4.15-4.13c-14.39-13.84-39.36-15.05-55.65,0.94
		c-16.02,15.72-16.22,41.38-0.45,57.36c15.8,16.02,41.66,16.12,57.52,0.22c16.21-16.26,14.94-41.07,1.83-55.18
		C134.89,57.57,133.52,58.95,132.05,60.42z M117.29,74.99c4.71,8.08,1.24,15.49-3.41,18.82c-5.46,3.91-13.02,3.35-17.79-1.41
		c-4.84-4.83-5.41-12.44-1.31-17.92c2.04-2.73,4.74-4.51,8.06-5.2c4.17-0.87,8.02,0.02,11.31,2.48c1.46-1.51,2.81-2.91,4.15-4.3
		c-6.43-6.53-18.88-6.18-26.24,0.85c-7.9,7.55-8.28,19.91-0.84,27.91c7.42,7.98,19.81,8.52,27.9,1.21
		c7.71-6.96,8.81-19.33,2.36-26.68C120.12,72.15,118.74,73.53,117.29,74.99z M111.44,75.1c-4.58-3.1-9.96-2.32-13.12,1.62
		c-3.08,3.85-2.72,9.39,0.84,12.84c3.62,3.51,9.18,3.59,13.02,0.28c2.82-2.43,4.63-7.92,1.67-11.7c-1.8,1.84-3.59,3.66-5.37,5.48
		c-1,1.03-2.11,1.79-3.38,0.57c-1.3-1.27-0.69-2.47,0.45-3.53C107.51,78.83,109.44,76.99,111.44,75.1z"/>
	<path class="st5" d="M29.67,86.01c-0.92,0-1.84,0.06-2.75-0.01c-1.12-0.09-1.8-0.74-1.88-1.88c-0.09-1.25,0.56-2.09,1.76-2.17
		c1.89-0.12,3.79-0.11,5.68-0.01c1.22,0.07,1.88,0.94,1.79,2.15c-0.08,1.2-0.82,1.89-2.06,1.92C31.38,86.04,30.52,86.02,29.67,86.01
		C29.67,86.02,29.67,86.01,29.67,86.01z"/>
	<path class="st5" d="M179.38,86.01c-0.92,0-1.83,0.05-2.75-0.01c-1.24-0.08-1.91-0.85-1.93-2.05c-0.02-1.11,0.61-1.95,1.75-2
		c1.95-0.09,3.92-0.1,5.87,0.03c1.12,0.08,1.69,0.93,1.63,2.07c-0.06,1.15-0.72,1.82-1.83,1.93
		C181.22,86.08,180.3,86.01,179.38,86.01C179.38,86.01,179.38,86.01,179.38,86.01z"/>
	<path class="st5" d="M55.44,32.75c-0.03,1.78-1.78,2.85-3.06,1.84c-1.58-1.24-2.98-2.74-4.33-4.25c-0.66-0.74-0.53-1.75,0.18-2.51
		c0.62-0.67,1.46-1.06,2.29-0.5c1.85,1.26,3.3,2.95,4.74,4.64C55.44,32.18,55.41,32.59,55.44,32.75z"/>
	<path class="st5" d="M55.45,134.97c-0.02,0.63-0.13,1.07-0.47,1.42c-1.29,1.3-2.53,2.64-3.89,3.86c-0.89,0.8-1.97,0.75-2.81-0.12
		c-0.84-0.87-0.84-1.92-0.02-2.81c1.2-1.29,2.47-2.52,3.73-3.75c0.68-0.66,1.52-0.76,2.35-0.34
		C55.11,133.59,55.5,134.25,55.45,134.97z"/>
	<path class="st5" d="M159.18,140.73c-0.66,0.03-1.15-0.28-1.58-0.71c-1.11-1.1-2.24-2.19-3.32-3.33c-0.94-0.99-1.12-2.12-0.1-3.12
		c0.94-0.93,2.03-0.8,2.96,0.1c1.22,1.18,2.42,2.39,3.6,3.61c0.66,0.69,0.75,1.53,0.34,2.36C160.7,140.4,160.05,140.8,159.18,140.73
		z"/>
	<path class="st5" d="M106.54,9.21c0,0.85,0.04,1.7-0.01,2.55c-0.06,1.23-0.74,1.94-1.98,1.96c-1.23,0.02-2.01-0.62-2.06-1.87
		c-0.06-1.83-0.06-3.66,0-5.49c0.04-1.26,0.86-1.89,2.06-1.87c1.22,0.02,1.93,0.72,1.98,1.97C106.56,7.38,106.54,8.3,106.54,9.21z"
		/>
</g>
</svg>
