<?xml version="1.0" encoding="utf-8"?>
<!-- Generator: Adobe Illustrator 25.4.1, SVG Export Plug-In . SVG Version: 6.00 Build 0)  -->
<svg version="1.1" id="Capa_1" xmlns="http://www.w3.org/2000/svg" xmlns:xlink="http://www.w3.org/1999/xlink" x="0px" y="0px"
	 viewBox="0 0 209 209" style="enable-background:new 0 0 209 209;" xml:space="preserve">
<style type="text/css">
	.st0{fill:#FFFFFF;}
	.st1{fill:#FBFBFB;}
	.st2{fill:#FDFDFD;}
	.st3{fill:#18365F;}
	.st4{fill:#033562;}
	.st5{fill:#17AF95;}
</style>
<g>
	<path class="st0" d="M148.93,30.17c1.3,0.22,2.49,0.32,3.62,0.63c4.69,1.32,7.71,5.44,7.72,10.58c0.03,13.11,0.01,26.22,0.01,39.33
		c0,10.27,0,20.55,0,30.82c0,0.79,0.06,1.49,0.57,2.22c7.95,11.21,8.94,23.04,3.01,35.44c-0.1,0.2-0.17,0.42-0.25,0.62
		c0.1,0.59,0.61,0.81,0.97,1.14c6.79,6.19,13.63,12.34,20.38,18.58c3.11,2.87,4.07,6.51,2.93,10.55c-1.12,3.99-3.86,6.49-7.91,7.34
		c-3.85,0.81-7.19-0.34-9.87-3.21c-2.83-3.02-5.59-6.11-8.39-9.17c-0.41-0.45-0.84-0.88-1.33-1.4c-0.22,0.97-0.35,1.81-0.6,2.61
		c-1.29,4.1-4.87,6.6-9.45,6.61c-21.34,0.01-42.68,0.01-64.01-0.02c-1.12,0-2.04,0.25-2.98,0.89c-6.04,4.03-12.82,5.9-19.98,6.45
		c-9.19,0.71-18.15-0.25-26.44-4.6c-10.5-5.51-15.91-14.3-16.27-26.16c-0.11-3.53,0.19-7.02,0.92-10.49
		c0.16-0.77,0.15-1.58,0.15-2.37c0.01-39.16,0.01-78.32,0.01-117.49c0-6.76,3.64-10.42,10.37-10.42c35.41,0,70.82,0.08,106.24-0.08
		c6.25-0.03,11.07,4.1,10.6,10.61C148.91,29.53,148.93,29.86,148.93,30.17z M45.66,116.83c-1.62-2.86-2.55-5.84-3.22-8.96
		c-0.87-4.04,0.19-6.79,3.99-8.76c3.15-1.63,3.18-1.96,6.05,0.08c1.15,0.82,1.93,0.82,3.08,0.01c2.94-2.07,3.1-2.07,5.99-0.01
		c1.14,0.81,2.02,0.96,3.06-0.02c0.32-0.31,0.77-0.48,1.13-0.75c1.26-0.95,2.49-0.89,3.76-0.02c1.21,0.84,2.43,1.66,3.68,2.44
		c1.16,0.73,1.66,1.71,1.71,3.09c0.17,4.68-0.56,9.12-3.25,13.15c0.64,0.41,1.16,0.74,1.67,1.08c13.52,8.96,22.01,21.02,23.12,37.61
		c0.5,7.58-1,14.65-5.55,20.91c-0.14,0.19-0.46,0.39-0.14,0.73c19.9,0,39.82,0.01,59.74-0.01c2.64,0,4.25-1.57,4.35-4.19
		c0.06-1.64,0.02-3.29,0.01-4.94c0-0.39,0.06-0.78-0.25-1.12c-1.29-1.41-2.57-2.84-3.82-4.23c-15.31,8.31-32.31,3.93-41.89-7.34
		c-9.97-11.73-10.81-28.33-2.07-40.82c4.38-6.25,10.2-10.63,17.49-12.82c10.96-3.3,21.1-1.29,30.48,5.47
		c0.03-0.49,0.06-0.71,0.06-0.92c0-21.68,0.01-43.36-0.01-65.04c0-3.59-2.22-5.66-5.97-5.66c-35.13-0.01-70.26,0-105.38,0
		c-3.47,0-4.97,1.51-4.97,4.98c-0.01,26.56,0,53.12,0.01,79.69c0,0.35-0.22,0.8,0.3,1.1c1.07-0.79,2.15-1.61,3.26-2.38
		C43.18,118.41,44.33,117.69,45.66,116.83z M58.56,120.58c-2.38,0-4.77,0.01-7.15,0c-0.63,0-1.23,0.01-1.8,0.35
		c-14.76,8.63-23.77,20.8-23.47,38.55c0.17,10.08,4.91,17.54,14.09,21.63c12.1,5.39,24.46,5.32,36.61,0.05
		c7.12-3.08,11.77-8.54,13.53-16.21c1.22-5.3,0.9-10.62-0.36-15.86c-2.85-11.88-10.27-20.33-20.32-26.79
		c-1.92-1.23-3.87-1.98-6.2-1.75C61.86,120.71,60.2,120.58,58.56,120.58z M27.18,134.71c1.64-2.54,3.04-4.61,4.76-6.42
		c0.85-0.9,1.13-1.82,1.13-3.03c-0.03-28.04-0.02-56.07-0.02-84.11c0-7.04,3.78-10.8,10.84-10.8c32.52,0,65.03,0,97.55-0.01
		c0.66,0,1.36,0.2,1.98-0.18c0.43-3.73-0.42-6.1-5.6-6.08c-35.18,0.1-70.37,0.05-105.55,0.06c-3.89,0-5.08,1.18-5.08,5.06
		c0,34.45,0,68.9,0,103.35C27.18,133.09,27.18,133.64,27.18,134.71z M162.16,133.83c-0.02-15.48-12.55-27.96-28.05-27.93
		c-15.34,0.03-27.89,12.64-27.87,27.99c0.02,15.37,12.56,27.9,27.93,27.91C149.66,161.81,162.18,149.31,162.16,133.83z
		 M155.29,159.81c1.03,1.14,1.94,2.15,2.85,3.15c5.34,5.87,10.65,11.75,16.02,17.59c1.99,2.16,5.1,2.24,7.14,0.33
		c2.03-1.9,2.22-5.21,0.14-7.14c-6.92-6.42-13.93-12.75-21-19.19C158.88,156.49,157.2,158.16,155.29,159.81z M58.42,115.13
		c2.21,0,4.42-0.05,6.63,0.03c0.92,0.03,1.47-0.32,1.96-1.01c1.81-2.55,2.44-5.42,2.44-8.5c0-0.51-0.23-0.79-0.58-1.12
		c-0.95-0.91-1.78-0.62-2.65,0.1c-1.74,1.43-3.58,2.35-5.58,0.47c-1.44-1.35-2.75-1.32-4.2,0c-1.58,1.44-3.24,1.37-4.88,0.01
		c-0.35-0.29-0.77-0.48-1.12-0.77c-0.59-0.47-1.1-0.62-1.8-0.1c-0.63,0.47-1.06,0.86-0.95,1.76c0.36,2.9,1.24,5.62,2.69,8.16
		c0.41,0.72,0.89,1.02,1.75,1C54.23,115.09,56.32,115.13,58.42,115.13z"/>
	<path class="st0" d="M79.97,75.86c0-1.79-0.01-3.37,0-4.95c0.02-2.34,0.95-3.32,3.29-3.35c3.5-0.03,7.01-0.01,10.66-0.01
		c0-1.69-0.01-3.26,0-4.84c0.02-2.45,0.97-3.43,3.38-3.44c3.46-0.02,6.91,0,10.58,0c0-1.73-0.02-3.41,0-5.08
		c0.03-2.13,1.01-3.14,3.12-3.15c4.42-0.03,8.85-0.03,13.27,0c2.01,0.01,3.01,1.03,3.01,3.07c0.01,12.59,0.02,25.18,0,37.78
		c0,1.9-1.03,2.92-2.92,3.04c-0.4,0.03-0.79,0.01-1.19,0.01c-17.69,0-35.39,0-53.08,0c-3.33,0-4.09-0.77-4.09-4.11
		c0-3.86-0.01-7.71,0-11.57c0.01-2.46,0.92-3.38,3.38-3.39C72.85,75.85,76.3,75.86,79.97,75.86z M121.78,56.58
		c-2.86,0-5.61,0-8.31,0c0,11.01,0,21.93,0,32.82c2.83,0,5.54,0,8.31,0C121.78,78.44,121.78,67.57,121.78,56.58z M107.89,64.81
		c-2.97,0-5.67,0-8.37,0c0,8.26,0,16.44,0,24.59c2.84,0,5.54,0,8.37,0c0-7.73,0-15.38,0-23.03
		C107.89,65.87,107.89,65.38,107.89,64.81z M93.83,89.45c0-5.54,0-10.94,0-16.34c-2.85,0-5.59,0-8.27,0c0,5.51,0,10.92,0,16.34
		C88.35,89.45,91.01,89.45,93.83,89.45z M71.58,81.36c0,2.8,0,5.42,0,8.01c2.86,0,5.6,0,8.28,0c0-2.75,0-5.38,0-8.01
		C77.05,81.36,74.35,81.36,71.58,81.36z"/>
	<path class="st0" d="M55.84,167.6c-2.84-0.85-5.07-2.18-6.33-4.77c-0.92-1.91-0.59-3.51,0.89-4.29c1.49-0.79,2.94-0.16,3.96,1.73
		c1.43,2.65,6.14,2.87,7.83,0.36c0.93-1.38,0.56-3.07-0.94-4.15c-1.38-1-3.01-1.23-4.63-1.54c-5.83-1.11-8.84-6.66-6.29-11.6
		c0.95-1.84,2.44-3.14,4.36-3.84c0.92-0.34,1.23-0.8,1.13-1.73c-0.06-0.56-0.05-1.15,0.09-1.69c0.38-1.43,1.37-2.27,2.85-2.14
		c1.45,0.13,2.38,1.01,2.47,2.55c0.05,0.79,0.01,1.58,0.01,2.41c1.97,0.66,3.7,1.6,5.05,3.13c1.27,1.45,1.34,2.92,0.17,4.08
		c-1.11,1.1-2.76,1.03-4.05-0.28c-1.49-1.51-3.17-2.11-5.24-1.46c-1.3,0.41-2.27,1.18-2.25,2.62c0.02,1.46,1.04,2.19,2.35,2.51
		c1.15,0.28,2.34,0.43,3.48,0.77c4.58,1.37,7.38,4.63,7.37,8.65c-0.01,3.49-1.6,6.16-4.74,7.62c-1.57,0.73-2.45,1.47-2.16,3.3
		c0.16,1.04-0.44,1.86-1.34,2.38c-1.71,0.99-3.78-0.1-4.04-2.14C55.76,169.28,55.84,168.48,55.84,167.6z"/>
	<path class="st0" d="M159.72,133.85c0.01,14.11-11.41,25.54-25.49,25.53c-14.07-0.01-25.55-11.46-25.56-25.52
		c-0.01-14.03,11.51-25.55,25.55-25.56C148.28,108.3,159.71,119.74,159.72,133.85z M154.26,133.95c0.04-11.04-8.87-20.1-19.87-20.19
		c-11.05-0.09-20.21,8.95-20.28,20.01c-0.07,10.96,8.96,20.1,19.92,20.17C145.17,154,154.22,145.05,154.26,133.95z"/>
	<path class="st0" d="M145.14,133.2c-2.21,2.22-4.19,4.22-6.19,6.21c-2.03,2.03-3.24,2.03-5.27-0.06c-1.1-1.13-2.1-2.36-3.24-3.65
		c-2.84,2.88-5.32,5.45-7.86,7.95c-1.44,1.42-3.23,1.32-4.27-0.13c-0.89-1.24-0.75-2.49,0.28-3.55c3.22-3.28,6.46-6.53,9.74-9.74
		c1.23-1.2,2.66-1.17,3.94,0.05c1.35,1.29,2.59,2.69,3.75,3.9c1.85-1.77,3.55-3.39,5.31-5.08c-0.59-0.1-1.14-0.14-1.66-0.28
		c-1.4-0.38-2.11-1.38-2.01-2.77c0.09-1.38,0.89-2.41,2.35-2.46c2.77-0.09,5.56-0.1,8.33,0.01c1.49,0.06,2.32,1.23,2.35,3.01
		c0.04,2.21,0.03,4.42,0.01,6.63c-0.02,1.96-0.95,3.14-2.5,3.29C146.59,136.69,145.54,135.66,145.14,133.2z"/>
</g>
</svg>
