<?xml version="1.0" encoding="utf-8"?>
<!-- Generator: Adobe Illustrator 25.4.1, SVG Export Plug-In . SVG Version: 6.00 Build 0)  -->
<svg version="1.1" id="Capa_1" xmlns="http://www.w3.org/2000/svg" xmlns:xlink="http://www.w3.org/1999/xlink" x="0px" y="0px"
	 viewBox="0 0 209 209" style="enable-background:new 0 0 209 209;" xml:space="preserve">
<style type="text/css">
	.st0{fill:#FFFFFF;}
	.st1{fill:#FBFBFB;}
	.st2{fill:#FDFDFD;}
	.st3{fill:#18365F;}
	.st4{fill:#033562;}
	.st5{fill:#17AF95;}
</style>
<g>
	<path class="st0" d="M156.17,114.27c7.26,3.46,13.05,8.41,17.33,15.08c4.12,6.44,6.35,13.48,6.38,21.14
		c0.06,12.86,0.03,25.73,0.02,38.59c0,2.16-0.53,2.68-2.7,2.68c-44.6,0-89.2,0-133.8,0c-2.26,0-2.73-0.49-2.73-2.84
		c0-12.55-0.17-25.1,0.04-37.64c0.27-16.46,7.98-28.5,22.38-36.34c0.38-0.21,0.77-0.41,1.27-0.67c-0.88-3.37-1.74-6.73-2.17-10.17
		c-0.78-6.23-0.84-12.34,2.14-18.17c1.62-3.17,2.17-6.72,2.91-10.18c0.13-0.6-0.05-1.08-0.32-1.61c-2.09-4.15-1.54-8.47-0.71-12.78
		c0.15-0.76,0.59-1.65,1.18-2.11c1.77-1.37,1.76-3.23,1.72-5.13c-0.09-5.03,0.3-9.99,2.1-14.75c4.93-13.07,17.35-21.77,31.36-21.75
		c6.71,0.01,13.43-0.46,20.12,0.33c15.34,1.81,28.15,15.76,28.67,31.19c0.05,1.46,0.1,2.92,0.06,4.37c-0.05,2.24,0,4.37,1.95,6.01
		c0.81,0.68,1.27,1.83,1.33,2.88c0.24,4.07,1.11,8.23-1.21,12.04c-0.27,0.44-0.21,0.83-0.12,1.27c0.79,4.1,1.79,8.13,3.6,11.94
		c2.46,5.21,2.08,10.73,1.44,16.23C158.01,107.33,157.22,110.72,156.17,114.27z M86.8,114.66c-3.4,0-6.54-0.33-9.58,0.05
		c-19.35,2.44-32.71,17.69-32.73,37.2c-0.02,11.4,0,22.8,0,34.2c0,0.55,0,1.11,0,1.66c17.53,0,34.92,0,52.47,0
		c-4.72-5.52-9.28-10.86-13.85-16.2c-1.79-2.09-1.81-2.29-0.28-4.59c2.44-3.67,4.89-7.33,7.33-11
		c-6.13-7.29-12.16-14.46-18.18-21.63c-1.81-2.16-1.79-2.54,0.19-4.58C76.99,124.79,81.82,119.8,86.8,114.66z M123.62,187.81
		c17.68,0,35.06,0,52.48,0c0-11.99,0.01-23.84,0-35.69c-0.02-16.35-8.74-29.24-23.93-35.33c-5.86-2.35-11.98-2.53-18.44-2.2
		c5.06,5.22,9.91,10.22,14.75,15.21c1.91,1.97,1.94,2.4,0.22,4.45c-3.82,4.56-7.66,9.12-11.49,13.68c-2.27,2.7-4.53,5.41-6.77,8.08
		c2.53,3.79,4.88,7.47,7.4,11.03c1.21,1.7,1.11,2.93-0.27,4.49C132.9,176.85,128.35,182.27,123.62,187.81z M138.12,60.02
		c-4.12,0.36-7.85,0.47-11.57-0.02c-7.72-1.02-14.5-4.28-20.71-8.82c-1.32-0.96-2.51-1.1-4.05-0.63
		c-6.43,1.97-12.43,4.94-18.41,7.94c-0.82,0.41-0.81,1-0.81,1.71c0.01,6.21-0.2,12.43,0.06,18.62c0.46,10.89,5.58,19.13,15.31,24.02
		c9.75,4.9,19.36,3.95,28.37-2.16c3.08-2.09,5.66-4.76,7.52-8.14c-3.67,0-7.19,0-10.65,0c-1.53,4.29-3.51,5.68-7.96,5.69
		c-1.96,0-3.93,0.02-5.89,0c-4.3-0.04-7.04-2.82-7.11-7.18c-0.08-5.19,2.39-8.19,6.94-8.34c2.34-0.08,4.69-0.07,7.03,0
		c3.23,0.1,5.57,1.65,6.6,4.76c0.35,1.05,0.88,1.17,1.78,1.16c2.79-0.04,5.57-0.01,8.36-0.01c3.17,0,3.22,0.01,4-3.05
		C139.05,77.2,137.48,68.69,138.12,60.02z M73.05,55.78c4.23,0.47,8.1-0.02,11.86-2.24c4.01-2.36,8.47-3.91,12.78-5.71
		c4.48-1.86,8.21-1.6,12.3,1.46c7.43,5.55,16.04,7.95,25.37,7.06c3.53-0.33,7.05-0.51,10.59-0.48c0.54,0.01,1.13,0.24,1.62-0.14
		c0-2.12,0.06-4.21-0.01-6.3c-0.44-13.69-11.61-26-25.22-27.69c-6.68-0.83-13.42-0.37-20.12-0.32c-9.2,0.08-16.77,3.87-22.63,10.95
		C73.97,39.16,72.36,47.12,73.05,55.78z M86,169.1c5.18,6.07,10.32,12.08,15.46,18.1c0.33,0.38,0.6,0.77,1.21,0.75
		c1.67-0.04,3.34-0.01,5.18-0.01c-5.83-23.96-11.59-47.64-17.42-71.56c-5.2,5.38-10.24,10.58-15.32,15.83
		c6.03,7.17,11.94,14.19,17.84,21.22c1.87,2.22,1.87,2.38,0.29,4.75C90.85,161.81,88.44,165.44,86,169.1z M134.59,169.09
		c-2.4-3.6-4.76-7.12-7.11-10.64c-1.79-2.69-1.79-2.73,0.3-5.21c5.87-6.98,11.73-13.96,17.68-21.04
		c-5.09-5.26-10.14-10.47-15.32-15.83c-5.83,23.98-11.61,47.7-17.41,71.57c1.82,0,3.34-0.04,4.86,0.02
		c0.72,0.03,1.15-0.27,1.59-0.79C124.25,181.19,129.35,175.22,134.59,169.09z M110.09,180.95c0.14,0,0.27,0,0.41-0.01
		c4.26-17.52,8.53-35.03,12.86-52.84c-8.79,1.9-17.36,1.89-26.13,0C101.56,145.91,105.82,163.43,110.09,180.95z M89.58,110.66
		c0-2.53-0.05-4.86,0.02-7.2c0.04-1.11-0.34-1.88-1.13-2.64c-4.07-3.88-6.86-8.56-8.46-13.94c-0.83-2.8-1.12-5.69-1.32-8.67
		c-2.66-0.29-5.32,0.25-7.97-0.63c-0.86,4.66-2.32,8.94-4.25,13.08c-0.29,0.62-0.46,1.32-0.57,2c-1.04,6.84,0.22,13.44,2.07,20.24
		C75.02,110.19,82.26,110.73,89.58,110.66z M93.62,104.97c-0.95,6,0.8,11.45,2.08,16.98c0.36,1.56,1.02,2.17,2.5,2.47
		c7.21,1.48,14.39,1.58,21.69,0.51c3.28-0.48,4.99-1.58,5.62-5.08c0.89-4.9,2.26-9.7,1.5-14.88
		C115.9,111.24,104.78,111.28,93.62,104.97z M149.88,79.4c-0.01,0.13-0.03,0.25-0.04,0.38c-0.13,8.05-2.83,11.24-10.79,12.63
		c-0.7,0.12-0.95,0.5-1.22,1c-1.6,2.91-3.63,5.48-6.04,7.76c-0.37,0.35-0.78,0.69-0.78,1.24c-0.01,2.7-0.01,5.41-0.01,8.3
		c7.4-0.07,14.62-0.41,21.62,2.17c1.67-6.36,2.95-12.47,2.2-18.82C154.21,88.85,150.74,84.58,149.88,79.4z M78.68,59.68
		c-3.05,0.3-6.72-1.17-8.45,2.3c-1.58,3.15-1.58,6.93,0.01,10.09c1.76,3.48,5.41,1.98,8.44,2.29C78.68,69.4,78.68,64.62,78.68,59.68
		z M141.9,59.76c0,4.87,0,9.65,0,14.57c1.27,0,2.45,0.01,3.64,0c0.51,0,1.01-0.01,1.52-0.08c2.17-0.28,3.74-1.76,3.99-3.93
		c0.25-2.2,0.25-4.43,0-6.63c-0.25-2.16-1.86-3.75-3.99-3.91C145.37,59.66,143.67,59.76,141.9,59.76z M112.56,94.42
		c1.2,0,2.41,0.03,3.61-0.01c1.99-0.07,3.1-1.21,3.21-3.23c0.15-2.87-0.69-4.45-2.78-4.59c-2.58-0.18-5.19-0.17-7.78-0.01
		c-2.13,0.13-2.91,1.58-2.79,4.54c0.08,2.1,1.1,3.2,3.11,3.29C110.28,94.46,111.42,94.42,112.56,94.42z M140.18,88.26
		c4.45-0.37,6.96-5.08,5.55-10.06c-1.26,0-2.51,0-3.86,0C141.71,81.64,141.18,84.97,140.18,88.26z"/>
</g>
</svg>
