<?xml version="1.0" encoding="utf-8"?>
<!-- Generator: Adobe Illustrator 25.4.1, SVG Export Plug-In . SVG Version: 6.00 Build 0)  -->
<svg version="1.1" id="Capa_1" xmlns="http://www.w3.org/2000/svg" xmlns:xlink="http://www.w3.org/1999/xlink" x="0px" y="0px"
	 viewBox="0 0 209 209" style="enable-background:new 0 0 209 209;" xml:space="preserve">
<style type="text/css">
	.st0{fill:#FFFFFF;}
	.st1{fill:#FBFBFB;}
	.st2{fill:#FDFDFD;}
	.st3{fill:#18365F;}
	.st4{fill:#033562;}
	.st5{fill:#17AF95;}
</style>
<g>
	<path class="st0" d="M176.74,123.9c1.12,7.05,2.21,13.8,3.27,20.55c1.73,11,3.43,21.99,5.16,32.99c0.24,1.5,0.09,3-0.2,4.46
		c-1.06,5.34-5.85,8.07-11.02,6.24c-4.94-1.75-7.69-5.59-9.11-10.38c-2.59-8.75-4.98-17.56-7.45-26.35
		c-0.17-0.61-0.36-1.22-0.96-1.77c-0.3,3.42-0.57,6.85-0.91,10.27c-0.63,6.44-0.82,12.92-1.87,19.32c-0.42,2.56-1.56,4.85-3.37,6.74
		c-4.41,4.61-11.36,3.73-14.52-1.84c-1.53-2.69-1.79-5.64-1.78-8.66c0.03-4.85,0.01-9.7,0.01-14.62c-2.59,0.95-4.74,0.08-6.66-1.98
		c-1.89-2.02-2.15-1.99-4.65-0.63c-2.08,1.13-4.26,2.03-6.51,2.74c-2.98,0.94-2.96,0.93-3.03,3.98c-0.02,0.93-0.08,1.89-0.33,2.77
		c-0.59,2.02-2.49,3.36-4.84,3.43c-2.11,0.07-4.23,0.06-6.35,0.01c-3.14-0.08-5.1-1.96-5.35-5.08c-0.06-0.8-0.03-1.62-0.03-2.43
		c-0.01-1.11-0.44-1.9-1.58-2.23c-3.16-0.93-6.22-2.14-9.09-3.78c-1.49-0.85-2.46,0.06-3.37,1.08c-1.85,2.07-4,3.14-6.93,2.04
		c0,3.35,0.02,6.62,0,9.88c-0.02,3.41,0.47,6.84-0.38,10.23c-1.14,4.54-4.18,7.56-8.07,7.98c-4.16,0.45-7.86-1.86-9.93-6.14
		c-1.33-2.76-1.58-5.73-1.83-8.7c-0.67-7.81-1.31-15.63-1.98-23.44c-0.03-0.36,0.03-0.76-0.51-1.12c-1.3,4.62-2.57,9.19-3.85,13.75
		c-1.37,4.9-2.63,9.84-4.16,14.69c-1.47,4.69-4.17,8.5-9.02,10.24c-5.39,1.93-10.28-1.07-11.18-6.71c-0.62-3.86,0.42-7.55,1-11.28
		c2.35-15.3,4.77-30.59,7.17-45.97c-1.08-0.54-2.21-0.25-3.28-0.27c-6.3-0.08-10.09-3.86-10.1-10.15c-0.01-7.04-0.01-14.07,0-21.11
		c0.01-12.78,7.7-21.95,20.33-24.25c0.09-0.61-0.47-0.81-0.76-1.14c-3.45-3.87-5.19-8.4-5.34-13.58c-0.15-5.16,0.2-10.18,3.06-14.73
		c4.71-7.5,13.74-11.15,22.34-8.91c8.52,2.21,14.67,9.91,14.99,18.77c0.18,4.84,0.24,9.66-2.37,14.44c1.56-0.47,2.27-1.35,3.08-2.05
		c8.15-7.05,15.91-14.52,23.57-22.1c1.83-1.81,2.05-1.81,3.9,0.04c0.84,0.83,1.65,1.7,2.53,2.6c1.31-0.76,2.2-1.89,3.14-2.91
		c1.21-1.32,2.16-1.24,3.41,0.01c7.32,7.29,14.75,14.49,22.54,21.28c1.29,1.13,2.62,2.21,4.13,3.21c-2.1-4.3-2.38-8.83-2.28-13.44
		c0.24-11.2,8.06-19.57,19.19-20.46c10.12-0.81,20.01,7.27,21.05,17.4c0.57,5.53,0.69,11.07-2.12,16.21
		c-1.02,1.87-2.3,3.53-3.93,5.26c1.12,0.25,2.11,0.45,3.08,0.7c10.36,2.74,17.35,11.78,17.49,22.82c0.1,7.47,0.07,14.95,0,22.42
		c-0.05,5.66-4,9.53-9.68,9.66C179.32,123.92,178.16,123.9,176.74,123.9z M148.53,124.42c0-1-0.01-1.99,0-2.99
		c0.02-1.69-0.78-2.54-2.49-2.52c-0.75,0.01-1.5,0.03-2.24-0.02c-2.35-0.14-4.02-1.27-4.73-3.54c-0.97-3.09-2.19-6.06-3.71-8.92
		c-1.11-2.09-0.76-4.09,0.79-5.87c0.53-0.61,1.13-1.16,1.7-1.73c1.14-1.14,1.11-2.28-0.02-3.41c-1.45-1.45-2.89-2.92-4.35-4.36
		c-1.08-1.06-2.19-1.02-3.28,0c-0.5,0.47-0.96,0.98-1.46,1.44c-2.09,1.93-3.98,2.27-6.46,0.96c-2.7-1.43-5.49-2.58-8.41-3.49
		c-2.47-0.76-3.59-2.36-3.74-4.98c-0.04-0.62,0-1.25-0.02-1.87c-0.06-2.08-0.65-2.68-2.68-2.71c-1.8-0.02-3.61-0.02-5.42,0
		c-2.1,0.02-2.72,0.68-2.77,2.83c-0.01,0.68-0.02,1.37-0.05,2.05c-0.11,2.31-1.27,3.9-3.45,4.59c-3.15,0.99-6.17,2.24-9.09,3.78
		c-2.03,1.07-3.98,0.69-5.71-0.78c-0.52-0.44-0.98-0.95-1.48-1.43c-1.54-1.49-2.45-1.5-3.94-0.05c-1.16,1.13-2.29,2.28-3.43,3.43
		c-2,2.01-2,2.56,0.03,4.6c0.35,0.35,0.72,0.69,1.05,1.06c1.59,1.76,1.96,3.77,0.87,5.86c-1.52,2.93-2.76,5.95-3.77,9.1
		c-0.7,2.17-2.4,3.25-4.67,3.39c-0.81,0.05-1.62,0.01-2.43,0.01c-1.53,0-2.31,0.8-2.34,2.29c-0.03,2.05-0.03,4.11-0.01,6.16
		c0.02,1.7,0.9,2.49,2.6,2.42c0.62-0.03,1.25-0.01,1.87,0.01c2.66,0.11,4.27,1.28,5.07,3.86c0.91,2.92,2.07,5.71,3.52,8.4
		c1.23,2.29,0.86,4.43-0.91,6.33c-0.51,0.55-1.07,1.05-1.57,1.6c-0.95,1.03-1.03,2.1-0.03,3.13c1.48,1.52,2.98,3,4.48,4.49
		c1.08,1.08,2.19,1.02,3.28,0.01c0.46-0.42,0.87-0.89,1.32-1.32c2.23-2.1,4.11-2.42,6.76-1c2.58,1.38,5.26,2.49,8.06,3.34
		c2.67,0.81,3.81,2.46,3.87,5.25c0.01,0.62,0,1.25,0,1.87c0.01,1.66,0.79,2.55,2.51,2.53c1.43-0.02,2.86,0,4.29,0
		c3.94,0,3.95,0,4.07-3.91c0.1-3.17,1.17-4.87,3.86-5.68c2.99-0.9,5.82-2.11,8.58-3.56c2.3-1.21,4.24-0.86,6.14,0.91
		c0.55,0.51,1.04,1.07,1.59,1.58c1.09,1.01,2.2,1.04,3.28-0.01c0.98-0.96,1.94-1.93,2.91-2.9c3-3,3-3,0.1-6.18
		c-2-2.19-2.31-4.06-0.94-6.62c1.44-2.69,2.57-5.5,3.47-8.42c0.7-2.29,2.34-3.45,4.67-3.66
		C148.53,129.38,148.53,129.4,148.53,124.42z M109.38,41.34c-0.72,0.78-1.29,1.45-1.9,2.06c-3.92,3.94-3.95,7.17-0.06,11.07
		c9.24,9.24,18.43,18.54,27.76,27.69c1.98,1.94,3.2,3.88,2.72,6.65c-0.32,1.8,0.47,3.05,1.77,4.18c1.54,1.35,2.34,3.05,1.9,5.16
		c-0.32,1.54-1.35,2.65-2.48,3.63c-1.42,1.23-1.49,2.56-0.59,4.13c1.27,2.21,2.23,4.56,2.97,7.01c0.83,2.77,1.03,2.92,3.9,2.9
		c1.94-0.02,3.69,0.26,5.05,1.84c0.8,0.93,0.9,2.12,1.31,3.08c7.38,0,14.63,0,21.95,0c0-9.78,0-19.42,0-29.07
		c0-0.56-0.01-1.12,0.03-1.68c0.05-0.81,0.55-1.25,1.31-1.31c0.87-0.07,1.45,0.37,1.59,1.23c0.09,0.55,0.06,1.12,0.06,1.68
		c0,9.09,0,18.18,0.01,27.26c0,0.65-0.23,1.36,0.27,2.02c1.29,0,2.59,0.04,3.89-0.01c3.82-0.13,6.4-2.72,6.41-6.54
		c0.03-7.66,0.07-15.31-0.01-22.97c-0.1-9.67-6.9-17.86-16.38-19.73c-1.85-0.37-3.88-1.02-5.68-0.09
		c-8.72,4.52-16.84,1.68-24.6-2.33c-4.73-2.45-8.49-6.46-12.47-10.04C121.79,53.45,115.66,47.54,109.38,41.34z M100.2,41.57
		C94.47,47,89.04,52.51,83.21,57.55c-6.36,5.49-11.97,11.9-20.65,14.47c-6.15,1.82-11.82,2.56-17.69-0.19
		c-0.88-0.42-1.75-0.56-2.7-0.52c-11.32,0.41-19.86,9.1-19.98,20.45c-0.08,7.16,0.14,14.32-0.06,21.48
		c-0.17,6.03,4.04,8.91,10.72,7.38c0-9.63,0-19.28,0-28.93c0-0.62,0-1.25,0.08-1.86c0.09-0.74,0.69-1.05,1.33-1.09
		c0.65-0.04,1.27,0.24,1.43,0.94c0.14,0.6,0.16,1.23,0.16,1.84c0.01,9.15,0,18.3,0.02,27.46c0,0.65-0.25,1.36,0.22,1.88
		c7.28,0,14.47,0,21.72,0c0.28-2.22,1.25-3.82,3.31-4.66c1.15-0.47,2.33-0.37,3.5-0.31c1.77,0.08,2.73-0.62,3.19-2.39
		c0.7-2.71,1.82-5.28,3.2-7.72c0.8-1.41,0.78-2.68-0.54-3.83c-0.65-0.57-1.24-1.23-1.75-1.93c-1.46-2.03-1.5-4.7,0.42-6.26
		c2.28-1.86,2.79-4.1,2.54-6.73c-0.15-1.58,0.52-2.65,1.61-3.74c9.41-9.34,18.77-18.74,28.16-28.1c0.48-0.48,1.13-0.78,1.57-1.08
		c-1.89-3.61-1.76-6.78-0.29-9.79C101.85,43.35,101.05,42.49,100.2,41.57z M35.62,123.95c-0.14,0.68-0.27,1.23-0.36,1.78
		c-2.34,14.92-4.7,29.84-7,44.77c-0.45,2.95-1.2,5.87-1.14,8.87c0.05,2.37,0.64,4.64,3,5.82c2.41,1.21,4.62,0.37,6.63-1.05
		c2.71-1.91,4.26-4.66,5.17-7.77c1.18-3.99,2.26-8,3.37-12.01c2.25-8.07,4.5-16.14,6.73-24.21c0.25-0.89,0.58-1.75,1.64-1.73
		c1.2,0.02,1.44,0.97,1.52,1.97c0.18,2.11,0.38,4.21,0.57,6.32c0.88,10.16,1.73,20.33,2.66,30.49c0.22,2.39,1.04,4.61,2.66,6.45
		c3.01,3.44,7.72,2.94,9.96-1.04c1.17-2.08,1.37-4.36,1.34-6.68c-0.06-4.79-0.28-9.59-0.14-14.38c0.08-2.57-0.56-4.5-2.58-6.13
		c-1.78-1.44-2.41-3.4-1.64-5.69c0.44-1.31,1.39-2.21,2.36-3.06c1.38-1.19,1.48-2.42,0.58-3.94c-1.2-2.03-2.15-4.2-2.83-6.46
		c-1.02-3.36-0.9-3.58-4.72-3.56c-3.54,0.02-5.5-2.01-5.65-5.55c-0.04-1.04,0.17-2.1-0.18-3.2
		C50.29,123.95,43.03,123.95,35.62,123.95z M151.5,124c0,1.46,0.07,2.71-0.01,3.94c-0.16,2.44-1.72,4.23-4.09,4.66
		c-0.91,0.16-1.86,0.15-2.79,0.1c-1.62-0.1-2.54,0.57-2.96,2.16c-0.74,2.77-1.8,5.42-3.27,7.89c-0.92,1.54-0.67,2.68,0.61,3.92
		c3.68,3.59,3.62,5.9-0.06,9.58c-0.26,0.26-0.51,0.55-0.8,0.78c-0.67,0.55-0.91,1.2-0.92,2.09c-0.05,5.6-0.17,11.2-0.27,16.8
		c-0.03,1.69,0.11,3.37,0.66,4.97c0.91,2.62,2.42,4.67,5.42,4.98c2.99,0.3,4.9-1.38,6.34-3.76c0.65-1.07,1.12-2.23,1.3-3.47
		c0.29-2.09,0.55-4.19,0.73-6.29c0.92-10.6,1.81-21.2,2.71-31.8c0.08-0.96,0.23-1.98,1.41-2.12c1.31-0.15,1.59,0.93,1.86,1.91
		c1.38,4.96,2.75,9.93,4.14,14.89c1.99,7.11,3.91,14.24,6,21.33c1.1,3.75,3.11,6.94,6.89,8.57c3.78,1.63,7.06-0.26,7.66-4.31
		c0.27-1.81,0.06-3.6-0.22-5.38c-2.06-13.2-4.11-26.41-6.18-39.61c-0.62-3.97-1.26-7.95-1.88-11.83C166.3,124,159.04,124,151.5,124z
		 M138.61,51.67c0,1-0.06,1.99,0.01,2.99c0.53,8.19,6.74,14.98,14.63,16.02c8.46,1.11,16.32-3.81,18.89-11.86
		c1.12-3.51,1.09-7.14,0.7-10.73c-1.39-12.94-15.3-19.93-26.13-13.11C140.61,38.8,138.16,44.58,138.61,51.67z M70.79,51.13
		c0-0.4,0.04-1.33-0.01-2.26c-0.32-7.37-5.15-13.63-12.16-15.76c-6.9-2.1-14.36,0.42-18.78,6.22c-3.5,4.6-3.76,9.89-3.38,15.29
		c0.89,12.65,14.32,20.2,25.28,14.14C68.39,65.08,71.2,59.17,70.79,51.13z M104.65,56.11c-9.84,9.85-19.6,19.62-29.38,29.38
		c-0.71,0.71-0.78,1.47-0.58,2.46c1.16-0.28,2.23-0.86,3.44-0.67c1.64,0.26,2.88,1.17,3.9,2.38c1.32,1.58,2.67,1.96,4.51,0.73
		c1.86-1.24,3.99-1.99,6.12-2.7c3.4-1.14,3.41-1.12,3.56-4.69c0.16-3.68,2.09-5.56,5.77-5.6c1.99-0.02,3.99-0.04,5.98,0.01
		c2.88,0.07,4.78,1.8,5.14,4.65c0.1,0.8,0.11,1.62,0.07,2.42c-0.07,1.54,0.59,2.4,2.11,2.81c2.77,0.74,5.44,1.79,7.89,3.27
		c1.57,0.95,2.77,0.76,3.92-0.59c2.05-2.43,4.48-3.5,7.59-1.92c0.3-1.1,0.1-1.89-0.65-2.64C124.29,75.71,114.55,65.99,104.65,56.11z
		 M71.48,63.56c0.1-0.05,0.26-0.09,0.28-0.16c0.05-0.17,0.02-0.36-0.25-0.24c-0.11,0.05-0.2,0.13-0.3,0.2
		C71.3,63.43,71.39,63.49,71.48,63.56z"/>
	<path class="st0" d="M95.33,33.32c-0.13,0.67-0.4,1.16-0.94,1.41c-0.55,0.25-1.1,0.21-1.55-0.23c-2.11-2.1-4.22-4.19-6.31-6.31
		c-0.56-0.56-0.55-1.22-0.05-1.85c0.49-0.62,1.26-0.9,1.8-0.43c2.44,2.1,4.7,4.39,6.83,6.81C95.24,32.89,95.27,33.17,95.33,33.32z"
		/>
	<path class="st0" d="M123.33,27.11c-0.05,0.66-0.42,1.08-0.82,1.47c-1.84,1.84-3.69,3.68-5.53,5.53c-0.75,0.76-1.55,1.11-2.41,0.25
		c-0.78-0.78-0.53-1.55,0.18-2.27c1.93-1.93,3.86-3.86,5.79-5.79c0.54-0.54,1.14-0.74,1.85-0.43
		C122.97,26.11,123.16,26.63,123.33,27.11z"/>
	<path class="st0" d="M106.21,25.67c0,1.36-0.01,2.73,0,4.09c0,1.03-0.45,1.7-1.52,1.69c-1.07-0.01-1.49-0.71-1.48-1.73
		c0.01-2.79,0.01-5.58,0-8.37c0-0.96,0.45-1.55,1.42-1.58c1.06-0.03,1.58,0.56,1.57,1.62C106.2,22.82,106.21,24.24,106.21,25.67z"/>
	<path class="st2" d="M71.48,63.56c-0.09-0.07-0.18-0.14-0.26-0.2c0.1-0.07,0.19-0.15,0.3-0.2c0.27-0.12,0.3,0.07,0.25,0.24
		C71.74,63.47,71.58,63.51,71.48,63.56z"/>
	<path class="st0" d="M129.79,124.33c0.02,13.93-11.15,25.2-25.04,25.24c-13.98,0.04-25.35-11.26-25.32-25.19
		c0.02-13.85,11.35-25.18,25.18-25.19C118.48,99.18,129.76,110.44,129.79,124.33z M82.46,123.97c-0.48,11.55,9.22,22.08,20.81,22.56
		c12.5,0.53,22.98-8.75,23.47-20.78c0.52-12.85-8.7-22.94-21.49-23.54C93.18,101.65,82.99,111.38,82.46,123.97z"/>
</g>
</svg>
