<?xml version="1.0" encoding="utf-8"?>
<!-- Generator: Adobe Illustrator 25.4.1, SVG Export Plug-In . SVG Version: 6.00 Build 0)  -->
<svg version="1.1" id="Capa_1" xmlns="http://www.w3.org/2000/svg" xmlns:xlink="http://www.w3.org/1999/xlink" x="0px" y="0px"
	 viewBox="0 0 209 209" style="enable-background:new 0 0 209 209;" xml:space="preserve">
<style type="text/css">
	.st0{fill:#FFFFFF;}
	.st1{fill:#FBFBFB;}
	.st2{fill:#FDFDFD;}
	.st3{fill:#18365F;}
	.st4{fill:#033562;}
	.st5{fill:#17AF95;}
</style>
<g>
	<path class="st0" d="M123.77,115.33c0.36,0.29,0.92,0.68,1.4,1.15c14.82,14.81,29.65,29.62,44.45,44.45
		c5.59,5.6,6.14,13.67,1.38,19.45c-5.44,6.61-14.96,7.05-21.24,0.89c-5.6-5.5-11.11-11.09-16.66-16.64
		c-9.47-9.47-18.93-18.93-28.39-28.4c-0.36-0.36-0.66-0.77-1-1.18c-8.88,5.04-18.26,7.43-28.53,7.27c1,1.76,1.93,3.34,2.81,4.95
		c0.42,0.76,1.09,0.46,1.65,0.46c6.95,0.02,13.89,0.01,20.84,0.02c5.38,0.01,8.73,3.38,8.74,8.8c0.01,6.83,0.01,13.67,0,20.5
		c-0.01,5.27-3.42,8.66-8.71,8.66c-23.1,0.01-46.2,0.01-69.3,0c-5.39,0-8.74-3.38-8.75-8.79c-0.01-6.83-0.01-13.67,0-20.5
		c0.01-5.28,3.41-8.66,8.7-8.66c6.95-0.01,13.89-0.02,20.84,0.02c1.02,0.01,1.61-0.24,2.11-1.18c1.31-2.48,2.76-4.9,4.22-7.46
		c-5.21-1.94-10.02-4.38-14.27-7.75c-15.52-12.29-22.88-28.34-21.29-48.11c1.24-15.46,8.34-28,20.38-37.75
		c0.52-0.42,1.01-0.75,1.04-1.59c0.4-10.74,7.13-21.41,20.53-24.93c9.28-2.44,18.71-2.5,27.72,1.33
		c10.27,4.36,15.83,12.3,16.71,23.44c0.06,0.77,0.36,1.22,0.92,1.66c10.8,8.54,17.5,19.59,19.95,33.13
		c2.21,12.19,0.29,23.79-5.43,34.77c-0.26,0.5-0.52,1-0.77,1.5C123.8,114.87,123.81,114.94,123.77,115.33z M103.61,61.26
		c16.03,16.7,13.45,41.07-0.94,54.62c-13.95,13.14-35.7,13.74-50.77,1.01c-7.18-6.07-11.45-13.91-12.76-23.19
		c-1.75-12.45,2.05-23.24,10.65-32.43c-2.36-3.03-3.88-6.38-4.92-10.02C32.51,61.43,24.7,79.77,29.04,98.54
		c4.09,17.66,15.06,29.39,31.99,35.85c0.82-1.42,1.49-2.66,2.22-3.85c1.38-2.23,3.78-2.24,5.15-0.01c0.97,1.58,1.94,3.18,2.75,4.85
		c0.5,1.01,1.18,1.35,2.23,1.42c3.62,0.23,7.21,0.07,10.8-0.5c36.88-5.77,53.89-49.22,30.72-78.49c-1.88-2.37-3.91-4.61-6.42-6.6
		c-0.62,1.88-1.14,3.59-1.93,5.2C105.75,58.09,104.74,59.65,103.61,61.26z M65.84,136.96c-2.78,4.85-5.45,9.41-8,14.03
		c-0.87,1.58-2,2.22-3.8,2.2c-7.57-0.06-15.13-0.03-22.7-0.02c-2.54,0-3.45,0.92-3.46,3.47c-0.01,6.72-0.01,13.44,0,20.16
		c0,2.55,0.92,3.47,3.46,3.47c22.98,0,45.96,0,68.94,0c2.56,0,3.5-0.92,3.5-3.43c0.01-6.72,0.01-13.44,0-20.16
		c0-2.63-0.91-3.52-3.58-3.52c-7.4,0-14.79-0.07-22.19,0.04c-2.17,0.03-3.42-0.77-4.42-2.62C71.15,146.1,68.54,141.69,65.84,136.96z
		 M108.3,132.07c0.53,0.56,0.94,1.01,1.37,1.44c9.06,9.06,18.12,18.12,27.19,27.19c5.59,5.59,11.18,11.18,16.76,16.77
		c2.22,2.23,4.87,3.25,7.99,2.65c3.44-0.66,5.8-2.73,6.83-6.07c1.08-3.51,0.05-6.55-2.51-9.11c-14.81-14.81-29.62-29.62-44.44-44.43
		c-0.26-0.26-0.45-0.68-1-0.57C117.12,124.52,113.11,128.54,108.3,132.07z M92.21,43.21c-4.87,3.85-10.23,6.16-16.27,6.76
		c-3.38,0.34-6.76,0.09-10.15,0.16c-4.18,0.09-7.74,3.16-8.01,7.23c-0.21,3.25-0.29,6.53,0.25,9.79c1.44,8.75,9.6,15.53,18.7,15.51
		c9.1-0.02,17.26-6.85,18.59-15.61c0.73-4.82,0.22-9.69,0.33-14.53C95.73,49.06,94.46,46.05,92.21,43.21z M52.53,55.37
		c0.19-0.59,0.33-1.01,0.47-1.44c1.87-5.46,6.91-9.13,12.7-9.22c2.31-0.03,4.63-0.01,6.94-0.01c5.47,0.01,10.43-1.55,14.87-4.76
		c1.23-0.89,2.42-1.85,3.67-2.72c1.4-0.98,2.87-0.95,3.77,0.3c2.63,3.66,5.29,7.31,5.91,11.99c0.22,1.68,0.08,3.39,0.31,5.34
		c0.28-0.47,0.4-0.65,0.5-0.84c5.41-11.18,0.13-24.11-11.74-28.96c-5.28-2.16-10.78-2.12-16.32-2.04
		c-5.07,0.08-9.78,1.42-14.12,4.06C49.9,32.93,46.6,46.01,52.53,55.37z M50.37,106.95c12.75,18.31,40.24,18.04,52.61,0.01
		c-0.84-1.13-1.89-2.05-2.97-2.95c-3.87-3.21-8.59-4.03-13.35-4.75c-0.93-0.14-1.72-0.02-2.58,0.4c-4.38,2.13-8.96,2.43-13.43,0.54
		c-2.11-0.89-4.01-0.93-6.17-0.61C58.94,100.42,54.09,102.47,50.37,106.95z M52.42,66.65c-9.06,9.56-10.6,25.16-4.87,35.36
		c4.95-5.25,11.33-7.32,18.28-8.04c0-2.69-0.02-5.17,0.01-7.65c0.01-0.59-0.19-0.9-0.7-1.18C57.93,81.12,53.8,74.95,52.42,66.65z
		 M100.99,66.69c-2.1,9.36-4.97,13.49-12.76,18.44c-0.38,0.24-0.73,0.41-0.73,0.99c0.03,2.58,0.01,5.15,0.01,7.89
		c7.1,0.65,13.42,2.85,18.4,8.1C111.64,90.57,109.54,75.46,100.99,66.69z M71.26,87.47c0,2.21,0.03,4.35-0.02,6.49
		c-0.01,0.64,0.3,0.87,0.82,1.08c3.08,1.24,6.15,1.23,9.23,0c0.51-0.2,0.84-0.42,0.82-1.07c-0.04-2.14-0.02-4.28-0.02-6.49
		C78.44,88.29,74.92,88.3,71.26,87.47z"/>
	<path class="st0" d="M155.07,110.72c-3.39,2.82-6.73,5.59-10.07,8.37c-0.19,0.16-0.37,0.33-0.57,0.48
		c-0.78,0.59-1.6,0.69-2.41,0.12c-0.8-0.56-1.04-1.35-0.77-2.3c1.12-3.89,2.22-7.79,3.37-11.68c0.21-0.7,0.15-1.17-0.42-1.72
		c-2.71-2.63-5.35-5.33-8.03-7.98c-0.72-0.71-1.28-1.45-0.86-2.52c0.43-1.11,1.33-1.33,2.42-1.32c3.07,0.03,6.14-0.02,9.21,0.03
		c0.73,0.01,1.1-0.23,1.41-0.87c1.54-3.16,3.14-6.28,4.69-9.44c0.44-0.89,1.02-1.54,2.05-1.55c1.03-0.01,1.63,0.62,2.07,1.52
		c1.53,3.12,3.12,6.21,4.64,9.34c0.35,0.73,0.72,1.03,1.58,1.01c3.07-0.06,6.14-0.01,9.21-0.03c1.05-0.01,1.89,0.27,2.3,1.31
		c0.4,1.01-0.08,1.75-0.77,2.43c-2.7,2.69-5.38,5.42-8.11,8.08c-0.56,0.55-0.65,1-0.44,1.72c1.12,3.81,2.17,7.64,3.29,11.44
		c0.31,1.04,0.2,1.9-0.69,2.54c-0.97,0.69-1.86,0.37-2.7-0.34c-3.05-2.56-6.11-5.1-9.16-7.65
		C155.9,111.37,155.51,111.07,155.07,110.72z M155.08,86.68c-1.4,2.8-2.71,5.37-3.97,7.97c-0.51,1.06-1.26,1.54-2.45,1.52
		c-2.14-0.04-4.28-0.01-6.67-0.01c2.18,2.18,4.17,4.2,6.19,6.19c0.82,0.81,1.08,1.66,0.72,2.8c-0.71,2.26-1.32,4.56-1.98,6.85
		c0.49,0.14,0.68-0.27,0.94-0.49c1.77-1.44,3.51-2.91,5.27-4.37c1.7-1.42,2.2-1.43,3.86-0.05c1.72,1.43,3.44,2.87,5.17,4.29
		c0.23,0.19,0.41,0.56,0.82,0.38c0.15-0.3,0.02-0.56-0.06-0.84c-0.56-1.95-1.06-3.91-1.67-5.85c-0.35-1.1-0.09-1.92,0.7-2.69
		c1.39-1.36,2.75-2.76,4.14-4.13c0.65-0.64,1.35-1.24,2.03-1.86c-2.33-0.25-4.45-0.29-6.56-0.24c-1.24,0.03-2-0.47-2.53-1.58
		C157.8,92.02,156.49,89.48,155.08,86.68z"/>
	<path class="st0" d="M151.11,64.86c-3.51,2.92-6.91,5.76-10.32,8.59c-1.24,1.03-2.48,1-3.24-0.07c-0.44-0.62-0.44-1.28-0.22-2.01
		c1.11-3.81,2.18-7.63,3.3-11.44c0.22-0.76,0.15-1.25-0.45-1.83c-2.71-2.63-5.35-5.32-8.03-7.98c-0.72-0.72-1.24-1.47-0.8-2.53
		c0.43-1.04,1.29-1.28,2.33-1.27c3.11,0.03,6.22-0.02,9.33,0.03c0.69,0.01,1.03-0.22,1.32-0.82c1.52-3.12,3.1-6.21,4.64-9.33
		c0.47-0.95,1.03-1.74,2.2-1.72c1.1,0.02,1.65,0.77,2.1,1.68c1.5,3.04,3.06,6.05,4.52,9.12c0.4,0.85,0.87,1.09,1.78,1.07
		c3.03-0.06,6.05-0.01,9.08-0.03c1-0.01,1.79,0.28,2.21,1.25c0.43,1,0,1.75-0.69,2.44c-2.73,2.72-5.44,5.47-8.19,8.17
		c-0.51,0.5-0.62,0.92-0.41,1.61c1.13,3.8,2.17,7.63,3.29,11.44c0.32,1.08,0.24,1.99-0.73,2.63c-0.99,0.66-1.87,0.29-2.7-0.42
		C158.02,70.61,154.61,67.78,151.11,64.86z M164.23,50.32c-2.42,0-4.56-0.03-6.7,0.01c-1.19,0.03-1.94-0.46-2.45-1.52
		c-0.87-1.83-1.8-3.63-2.71-5.44c-0.39-0.78-0.8-1.56-1.28-2.5c-1.37,2.73-2.66,5.23-3.86,7.77c-0.57,1.21-1.38,1.74-2.72,1.7
		c-2.09-0.07-4.18-0.02-6.54-0.02c2.12,2.1,3.98,4.04,5.94,5.87c1.11,1.04,1.42,2.1,0.93,3.55c-0.71,2.13-1.28,4.3-1.91,6.47
		c0.48,0.05,0.66-0.27,0.91-0.47c1.85-1.53,3.7-3.07,5.55-4.61c1.4-1.16,2.06-1.16,3.49,0.02c1.37,1.14,2.73,2.29,4.11,3.42
		c0.63,0.51,1.17,1.15,1.97,1.48c0.21-0.39,0.05-0.69-0.04-1c-0.53-1.83-1-3.68-1.59-5.48c-0.43-1.31-0.15-2.28,0.84-3.23
		C160.17,54.44,162.09,52.45,164.23,50.32z"/>
	<path class="st0" d="M33.42,169.5c21.58,0,43.14,0,64.83,0c0,1.68,0,3.4,0,5.24c-21.5,0-43.1,0-64.83,0
		C33.42,173.12,33.42,171.4,33.42,169.5z"/>
	<path class="st0" d="M38.76,163.92c0-1.78,0-3.46,0-5.23c18.02,0,36.01,0,54.09,0c0,1.69,0,3.41,0,5.23
		C74.89,163.92,56.9,163.92,38.76,163.92z"/>
</g>
</svg>
