<?xml version="1.0" encoding="utf-8"?>
<!-- Generator: Adobe Illustrator 25.4.1, SVG Export Plug-In . SVG Version: 6.00 Build 0)  -->
<svg version="1.1" id="Capa_1" xmlns="http://www.w3.org/2000/svg" xmlns:xlink="http://www.w3.org/1999/xlink" x="0px" y="0px"
	 viewBox="0 0 209 209" style="enable-background:new 0 0 209 209;" xml:space="preserve">
<style type="text/css">
	.st0{fill:#FFFFFF;}
	.st1{fill:#FBFBFB;}
	.st2{fill:#FDFDFD;}
	.st3{fill:#18365F;}
	.st4{fill:#033562;}
	.st5{fill:#17AF95;}
</style>
<g>
	<path class="st0" d="M105.28,6.29c1.69,0.86,2.36,2.19,2.34,4.13c-0.09,6.38-0.04,12.77-0.03,19.16c0,1.19-0.15,2.32-1.12,3.13
		c-0.94,0.78-2.01,1.12-3.2,0.58c-1.31-0.59-1.87-1.66-1.87-3.06c0-3.96,0-7.92,0-11.88c0-2.55,0.08-5.11-0.03-7.66
		c-0.08-1.86,0.4-3.34,1.99-4.39C104,6.29,104.64,6.29,105.28,6.29z"/>
	<path class="st0" d="M104.6,165.28c-7.03,0-14.06,0-21.09,0c-4.45,0-5.09-0.68-5.16-5.06c-0.08-5.13-0.73-10.18-2.37-15.07
		c-1.22-3.65-3.17-6.79-5.98-9.43c-7.32-6.86-12.24-15.19-14.52-24.94c-3.41-14.56-0.96-28.18,7.56-40.49
		c7.58-10.96,17.99-18.1,31.1-20.67c18.39-3.62,34.24,1.52,47.23,15.04c7.73,8.04,12.18,17.79,13.28,28.85
		c1.49,15.01-2.52,28.65-13.14,39.37c-7.7,7.77-10.49,16.74-10.71,27.1c-0.01,0.38,0.01,0.77,0,1.15c-0.04,3.12-1.02,4.14-4.14,4.15
		c-6.39,0.02-12.78,0.01-19.17,0.01C106.51,165.28,105.56,165.28,104.6,165.28z M124.5,159.17c0.24-2.45,0.41-4.86,0.73-7.25
		c1.16-8.46,4.22-15.99,10.73-21.85c2.38-2.15,4.22-4.77,5.98-7.45c9.43-14.36,8.9-35.04-1.27-48.93
		c-11.46-15.64-29.24-22.01-48.03-17.2c-17.08,4.38-30.8,20.53-32.22,38.13c-1.14,14.2,3.28,26.44,13.56,36.39
		c4.76,4.61,7.52,10.21,9.06,16.55c0.92,3.79,1.15,7.67,1.56,11.61C97.93,159.17,111.14,159.17,124.5,159.17z"/>
	<path class="st0" d="M104.31,184.33c-6.78,0-13.55,0.07-20.33-0.03c-3.56-0.05-6.46-2.74-7.04-6.17c-0.57-3.36,1.29-6.76,4.43-8.12
		c1.07-0.46,2.19-0.67,3.36-0.67c13.17,0,26.33-0.02,39.5,0.01c4.67,0.01,7.95,3.17,7.96,7.51c0,4.36-3.21,7.45-7.94,7.48
		c-6.65,0.05-13.3,0.01-19.94,0.01C104.31,184.35,104.31,184.34,104.31,184.33z M104.32,178.14c6.46,0,12.91,0.01,19.37-0.01
		c0.92,0,2.16,0.24,2.11-1.22c-0.05-1.24-1.09-1.35-2.13-1.35c-12.78,0.01-25.57,0-38.35,0.01c-0.96,0-2.15-0.01-2.13,1.3
		c0.02,1.27,1.14,1.27,2.15,1.27C91.66,178.13,97.99,178.14,104.32,178.14z"/>
	<path class="st0" d="M104.38,202.7c-4.47,0-8.94,0.02-13.42-0.01c-4.68-0.03-7.97-3.1-8.01-7.43c-0.04-4.44,3.23-7.55,8.05-7.56
		c9.01-0.03,18.02-0.03,27.02,0c4.74,0.01,8.2,3.23,8.17,7.52c-0.03,4.36-3.41,7.46-8.2,7.48
		C113.46,202.72,108.92,202.7,104.38,202.7z M104.71,193.9c-4.4,0-8.8,0-13.2,0c-1.01,0-2.29-0.14-2.26,1.32
		c0.03,1.27,1.17,1.26,2.17,1.26c8.8-0.01,17.59,0,26.39-0.01c0.95,0,2.11,0.12,2.04-1.32c-0.06-1.37-1.17-1.26-2.14-1.26
		C113.38,193.91,109.04,193.9,104.71,193.9z"/>
	<path class="st0" d="M186.3,56.46c0.07,1.14-0.67,2.09-1.79,2.7c-5.99,3.26-11.98,6.51-18.01,9.68c-1.85,0.98-3.69,0.4-4.47-1.16
		c-0.82-1.63-0.31-3.3,1.58-4.34c5.92-3.26,11.85-6.48,17.83-9.63C183.85,52.45,186.26,53.76,186.3,56.46z"/>
	<path class="st0" d="M47.32,66c0.04,2.19-2.4,3.81-4.47,2.88c-1.51-0.67-2.94-1.53-4.4-2.31c-4.49-2.42-8.97-4.85-13.46-7.26
		c-0.98-0.53-1.89-1.14-2.16-2.29c-0.29-1.24-0.15-2.44,0.92-3.31c1.19-0.97,2.5-0.85,3.77-0.18c4.11,2.19,8.19,4.41,12.29,6.62
		c1.85,1,3.71,1.99,5.55,3C46.47,63.77,47.26,64.64,47.32,66z"/>
	<path class="st0" d="M67.62,44.19c-1.19-0.15-2.17-0.61-2.85-1.67c-3.62-5.69-7.28-11.36-10.87-17.07
		c-1.11-1.76-0.73-3.62,0.74-4.55c1.49-0.94,3.29-0.51,4.44,1.26c3.67,5.66,7.32,11.33,10.89,17.06
		C71.36,41.46,69.98,44.2,67.62,44.19z"/>
	<path class="st0" d="M157.2,24.47c0.03,0.89-0.43,1.58-0.89,2.28c-3.52,5.31-7.04,10.62-10.57,15.92
		c-0.21,0.32-0.42,0.65-0.68,0.92c-1.19,1.27-2.93,1.56-4.13,0.73c-1.34-0.93-1.77-2.7-0.76-4.25c3.79-5.82,7.65-11.59,11.5-17.37
		c0.17-0.26,0.43-0.48,0.68-0.67c0.99-0.77,2.07-0.96,3.21-0.37C156.69,22.24,157.18,23.23,157.2,24.47z"/>
	<path class="st0" d="M143.76,98.76c0,0.83,0.07,1.66-0.01,2.48c-0.17,1.75-1.32,2.67-2.94,2.71c-1.52,0.04-2.75-0.76-3-2.41
		c-0.27-1.76-0.28-3.56-0.57-5.32c-2.78-16.38-14.9-27.36-31.37-28.45c-3.21-0.21-4.52-1.18-4.44-3.27
		c0.08-2.15,1.59-3.05,4.88-2.92c18.46,0.73,34.32,14.97,37.02,33.18C143.52,96.09,143.71,97.41,143.76,98.76z"/>
</g>
</svg>
