<?xml version="1.0" encoding="utf-8"?>
<!-- Generator: Adobe Illustrator 25.4.1, SVG Export Plug-In . SVG Version: 6.00 Build 0)  -->
<svg version="1.1" id="Capa_1" xmlns="http://www.w3.org/2000/svg" xmlns:xlink="http://www.w3.org/1999/xlink" x="0px" y="0px"
	 viewBox="0 0 209 209" style="enable-background:new 0 0 209 209;" xml:space="preserve">
<style type="text/css">
	.st0{fill:#FFFFFF;}
	.st1{fill:#FBFBFB;}
	.st2{fill:#FDFDFD;}
	.st3{fill:#18365F;}
	.st4{fill:#033562;}
	.st5{fill:#17AF95;}
</style>
<g>
	<path class="st0" d="M198.09,46.65c-1.84,0.79-3.78,0.29-5.67,0.41c-0.67,0.05-1.35,0.01-2.27,0.01c0,3.57,0,7.03,0,10.48
		c0,0.5,0,1,0,1.49c-0.01,0.74,0.08,1.54-0.77,1.93c-0.9,0.42-1.38-0.27-1.89-0.79c-3.96-3.96-7.95-7.89-11.85-11.91
		c-0.91-0.93-1.82-1.29-3.09-1.25c-2.6,0.09-5.2,0.03-7.9,0.03c0,5.33,0,10.51,0,15.8c0.78-0.74,1.45-1.43,2.18-2.06
		c2.78-2.4,5.64-2.55,8.68-0.47c2.11,1.44,3.54,3.47,4.71,5.68c3.13,5.91,4.5,12.35,5.45,18.87c2.12,14.54,1.82,29.02-1.4,43.39
		c-0.9,4-2.1,7.91-4.06,11.55c-0.92,1.71-2,3.29-3.42,4.63c-3.65,3.42-7.85,3.54-10.86-0.39c-5.81-7.58-13.89-11.85-22.07-16.03
		c-7-3.58-14.49-5.84-22.19-7.37c-0.54-0.11-1.1-0.15-1.63-0.22c-0.5,0.61-0.24,1.25-0.28,1.84c-0.04,0.61-0.01,1.23-0.01,1.93
		c0.96,0.35,1.89,0.18,2.79,0.19c4.14,0.02,6.58,1.47,7.71,4.6c1.09,3.03,0.14,5.72-2.94,8.29c3.12,5.49,2.98,6.75-1.26,11.42
		c3.26,5.02,3.08,6.61-1.33,11.28c1.88,1.78,2.51,4.05,2,6.55c-0.5,2.48-2.02,4.21-4.52,5.22c0.48,1.13,0.94,2.19,1.38,3.26
		c0.55,1.34,0.09,2.04-1.36,2.04c-6.04,0.01-12.07-0.01-18.11,0.01c-1.17,0-1.73-0.46-1.68-1.66c0.04-0.99,0.01-1.97,0.01-3.21
		c-2.77,0-5.43-0.08-8.08,0.02c-2.86,0.11-5.39-0.65-7.67-2.35c-1.04-0.78-2.22-1.39-3.22-2.23c-3.55-2.95-7.48-4.58-12.19-3.94
		c-0.84,0.11-1.93,0.09-1.98-1.12c-0.06-1.37,1.05-1.21,1.99-1.31c4.66-0.45,8.64,0.87,12.53,3.61c8.37,5.91,5.58,4.88,15.94,4.95
		c0.8,0.01,1.61,0,2.39,0c0.51-0.76,0.27-1.52,0.28-2.24c0.02-4.79-0.01-9.58,0.03-14.38c0.01-0.99-0.22-1.72-0.96-2.45
		c-2.13-2.09-2.83-4.75-2.72-7.69c-0.78-0.09-1.08,0.57-1.53,0.92c-3.89,3.09-8.28,4.97-13.2,5.62c-0.87,0.11-1.88,0.26-2.07-0.95
		c-0.2-1.24,0.82-1.39,1.69-1.49c6.02-0.7,10.94-3.46,14.98-7.9c0.48-0.53,0.93-1.05,1.72-0.8c0.93,0.3,0.84,1.12,0.86,1.86
		c0.04,1.62-0.04,3.24,0.13,4.85c0.34,3.26,3.12,5.85,6.3,6.12c1.24,0.1,1.9-0.28,1.89-1.6c-0.01-6.54,0.02-13.07-0.03-19.6
		c-0.02-2.18-1.18-3.28-3.42-3.32c-2.8-0.05-5.6,0-8.4,0.01c-1.97,0.01-3.78,0.57-5.53,1.46c-3.47,1.79-6.99,3.5-10.44,5.33
		c-2.26,1.19-4.59,1.73-7.15,1.7c-6.28-0.07-12.56-0.02-18.98-0.02c0,16.59,0,33.11,0,49.75c31.19,0,62.45,0,93.77,0
		c0.38-0.58,0.17-1.28,0.17-1.94c0.01-13.07,0.01-26.14,0.01-39.21c0-0.5-0.02-1,0.02-1.49c0.06-0.71,0.46-1.18,1.18-1.2
		c0.75-0.02,1.1,0.48,1.17,1.18c0.04,0.43,0.04,0.87,0.04,1.3c0,13.75,0,27.51,0,41.26c0,2.52-0.06,2.58-2.65,2.58
		c-31.17,0-62.35,0-93.52,0c-2.74,0-2.74,0-2.74-2.85c0-24.58,0-49.17,0-73.75c0-0.73,0-1.47,0-2.28c-3.45,0-6.73,0-9.99,0
		c-0.39,0.7-0.21,1.39-0.21,2.06c-0.01,26.7-0.01,53.4-0.01,80.1c0,4.92,1.99,6.95,6.87,6.95c35.22,0,70.44,0,105.66,0
		c4.77,0,6.81-2.05,6.81-6.82c0-12.76,0-25.52,0-38.28c0-0.56-0.01-1.12,0.05-1.68c0.07-0.66,0.51-0.98,1.15-0.96
		c0.64,0.02,1.06,0.35,1.12,1.01c0.04,0.56,0.04,1.12,0.04,1.68c0,12.57,0,25.14,0,37.72c0,5.68-1.31,7.67-6.4,9.73
		c-37.22,0-74.43,0-111.65,0c-4.67-1.87-6.13-5.35-6.1-10.28c0.16-26.38,0.07-52.76,0.07-79.14c0-0.67,0-1.34,0-2.16
		c-2.77,0-5.38,0.08-7.97-0.03c-1.37-0.06-2.3,0.38-3.24,1.35c-3.82,3.92-7.72,7.77-11.59,11.64c-0.57,0.57-1.11,1.3-2.05,0.89
		c-0.94-0.41-0.75-1.33-0.76-2.12c-0.01-2.24,0.03-4.48-0.01-6.72c-0.03-1.65,0.19-3.31-0.15-5.01c-1.84,0-3.58,0.01-5.32,0
		c-2.26-0.01-2.46-0.21-2.46-2.43c0-8.65,0-17.3,0-25.95c0-2.24,0.2-2.44,2.45-2.44c9.64-0.01,19.28,0,28.93,0c0.67,0,1.34,0,2.18,0
		c0-0.83,0-1.5,0-2.17c0-19.16,0.12-38.33-0.07-57.49c-0.06-5.88,4.07-9.24,9.22-9.22c35.27,0.13,70.54,0.07,105.81,0.07
		c0.5,0,1-0.01,1.49,0.01c3.35,0.14,6.2,2.31,7.22,5.51c0.2,0.62,0.36,1.26,0.54,1.9c10.32,0,20.52,0,30.72,0
		c0.92,0,1.84-0.06,2.68,0.42C198.09,26.73,198.09,36.69,198.09,46.65z M160.33,70.87c-0.52,0.33-1.06,0.63-1.56,0.98
		c-6.92,4.92-14.37,8.83-22.35,11.73c-7.79,2.84-15.83,4.55-24.14,5.32c0,9.37,0,18.62,0,27.99c17.55,1.95,33.57,7.98,48.13,18.22
		c-5.76-21.43-6.34-42.74,0.19-64.01c0.02-0.15,0.1-0.39,0.04-0.44C160.45,70.53,160.38,70.71,160.33,70.87z M149.55,47.07
		c-0.86,0-1.53,0-2.2,0c-4.77-0.04-4.22,0.56-4.23-4.33c-0.02-5.6,0.01-11.2-0.02-16.8c0-0.65,0.25-1.37-0.32-2.02
		c-5.12,0-10.29,0.01-15.45-0.01c-0.63,0-1,0.19-1.33,0.75c-1.62,2.69-4.11,3.89-7.18,3.89c-9.52,0.02-19.04,0.02-28.56,0
		c-3.07-0.01-5.59-1.16-7.17-3.89c-0.5-0.86-1.17-0.74-1.9-0.74c-8.09,0-16.18,0-24.27,0.01c-0.47,0-1-0.2-1.34,0.18
		c0,17.91,0,35.75,0,53.64c2.79,0,5.46,0.06,8.13-0.02c1.69-0.05,2.29,0.57,2.27,2.29c-0.07,8.78-0.07,17.55,0,26.33
		c0.01,1.77-0.68,2.29-2.32,2.24c-2.7-0.08-5.41-0.02-8.1-0.02c0,8.23,0,16.23,0,24.34c6.62,0,13.15-0.02,19.67,0.01
		c1.66,0.01,3.18-0.36,4.65-1.11c3.7-1.89,7.43-3.73,11.12-5.64c2.43-1.25,4.98-1.87,7.71-1.82c1.22,0.03,2.43,0,3.59,0
		c0-1.91,0-3.56,0-5.27c-1.18,0-2.24,0.01-3.3,0c-7.38-0.06-13.22-5.34-13.87-12.67c-0.2-2.28-0.19-4.61-0.01-6.9
		c0.57-7.05,5.78-12.16,12.86-12.64c2.91-0.19,5.84-0.07,8.77-0.14c14.74-0.37,28.56-4.14,41.52-11.15c0.72-0.39,1.31-0.68,1.3-1.74
		C149.52,65,149.55,56.17,149.55,47.07z M159.44,118.52c0.58,4.95,1.61,9.77,3.14,14.49c1.12,3.46,2.74,6.65,5.07,9.45
		c2.23,2.67,4.87,2.82,7.38,0.4c0.62-0.6,1.17-1.29,1.67-2c1.75-2.52,2.9-5.33,3.85-8.23c2.58-7.92,3.6-16.11,3.91-24.39
		c0.45-11.86-0.31-23.6-3.92-35.01c-1.11-3.5-2.48-6.91-4.97-9.7c-2.82-3.16-5.64-3.04-8.24,0.25c-0.23,0.29-0.43,0.6-0.65,0.91
		c-4.86,6.74-5.97,14.66-7.3,22.55c9.49,1.2,15.48,7.33,15.47,15.69C174.85,109.32,169.97,118.38,159.44,118.52z M17.33,118.43
		c3.94-3.95,7.55-7.52,11.1-11.15c0.85-0.86,1.72-1.24,2.95-1.23c10.02,0.05,20.03,0.03,30.05,0.02c0.66,0,1.36,0.16,2.07-0.2
		c0-8.48,0-16.97,0-25.53c-18.07,0-36.06,0-54.07,0c0,8.62,0,17.12,0,25.74c1.89,0,3.69-0.01,5.49,0c2.22,0.01,2.41,0.2,2.41,2.49
		C17.34,111.67,17.33,114.77,17.33,118.43z M195.58,18.86c-16.77,0-33.39,0-50.02,0c0,8.63,0,17.13,0,25.62
		c0.72,0.36,1.42,0.2,2.08,0.2c8.52,0.01,17.04,0.04,25.55-0.02c1.55-0.01,2.66,0.4,3.75,1.54c3.41,3.57,6.94,7.02,10.72,10.82
		c0-3.68,0.07-6.89-0.03-10.1c-0.05-1.73,0.62-2.34,2.3-2.25c1.84,0.1,3.69,0.02,5.63,0.02C195.58,36,195.58,27.5,195.58,18.86z
		 M42.83,77.64c3.51,0,6.78,0,10.21,0c0-0.77,0-1.45,0-2.12c0-17.18,0-34.35,0-51.53c0-2.32,0.12-2.43,2.41-2.43
		c8.15,0,16.3,0,24.45-0.01c0.65,0,1.35,0.22,2.02-0.25c-0.51-3.29-1.03-6.58-1.56-9.96c-0.7,0-1.25,0-1.81,0
		c-9.64,0-19.29,0-28.93,0c-4.77,0-6.8,2.04-6.8,6.82c0,19.17,0,38.33,0,57.5C42.83,76.26,42.83,76.87,42.83,77.64z M104.93,153.34
		c0,7.2,0,14.25,0,21.26c5.31,0,10.49,0,15.81,0c-0.63-1.46-1.11-2.8-1.78-4.05c-1.3-2.43-1.63-4.97-1.61-7.71
		c0.08-13.62,0.04-27.25,0.03-40.87c0-0.66,0.2-1.37-0.25-2.03c-4.03-0.5-8.08-1-12.33-0.8c0,1.34-0.01,2.57,0,3.8
		c0,0.42,0.04,0.84,0.07,1.33c0.7,0.03,1.32,0.04,1.92,0.09c2.87,0.27,5.05,2.4,5.07,5.24c0.07,6.9,0.05,13.81,0,20.71
		c-0.02,2.17-1.57,3.54-3.77,3.47C107.06,153.76,106.02,153.5,104.93,153.34z M128.65,11.34c-0.53,3.43-1.04,6.73-1.56,10.09
		c5.39,0,10.64,0,16.02,0c0-1.11,0.06-2.1-0.01-3.08c-0.12-1.58,0.59-2.1,2.1-2.02c1.8,0.09,3.61,0.02,5.41,0.02
		c3.77,0,7.53,0,11.31,0c-0.32-3.16-2.25-4.96-5.59-4.99C147.19,11.29,138.05,11.34,128.65,11.34z M152.05,47.13
		c0,8.74,0,17.35,0,26.22c3.23-1.88,6.03-3.98,8.84-6.08c0.93-0.7,1.32-1.42,1.31-2.63c-0.08-4.85-0.02-9.7-0.05-14.55
		c-0.01-0.97,0.22-1.97-0.2-2.96C158.7,47.13,155.48,47.13,152.05,47.13z M119.87,126.91c0,2.93,0,5.8,0,8.7
		c1.63,0,3.19,0.15,4.7-0.04c2.22-0.27,3.75-2.25,3.67-4.44c-0.09-2.27-1.85-4.09-4.16-4.21
		C122.72,126.86,121.36,126.91,119.87,126.91z M119.78,147.01c2.59,0.11,5.05,0.37,6.58-2.14c1-1.64,0.93-3.34-0.21-4.87
		c-1.66-2.23-4-1.98-6.37-1.72C119.78,141.21,119.78,143.99,119.78,147.01z M119.84,149.51c0,2.96,0,5.83,0,8.72
		c2.28,0.29,4.2-0.12,5.37-2.17c0.86-1.5,0.83-3.1-0.13-4.57C123.85,149.62,122.01,149.24,119.84,149.51z M119.89,160.87
		c-0.5,4.48-0.22,6.06,1.49,8.56c2.52-1.11,3.6-2.9,3.12-5.21C124.08,162.19,122.44,160.96,119.89,160.87z"/>
	<path class="st0" d="M63.6,164.74c-1.32-0.07-2.03-0.8-2.04-1.98c0-1.2,0.75-1.97,1.99-1.96c1.22,0.01,1.98,0.71,1.97,1.97
		C65.51,164,64.77,164.64,63.6,164.74z"/>
	<path class="st1" d="M160.33,70.87c0.05-0.16,0.12-0.34,0.31-0.21c0.06,0.04-0.02,0.29-0.04,0.44
		C160.5,71.04,160.41,70.96,160.33,70.87z"/>
	<path class="st0" d="M92.09,54.13c-0.01,7.52-6.27,13.8-13.75,13.78c-7.43-0.01-13.8-6.36-13.84-13.78
		c-0.04-7.57,6.29-13.86,13.91-13.82C85.98,40.35,92.09,46.53,92.09,54.13z M72.54,57.23c-1.71-3.78-1.22-6.89,1.43-9.12
		c2.29-1.91,5.66-2.08,8.14-0.4c3.01,2.04,3.63,4.9,2.05,9.68c1.27,0.94,2.2,2.21,2.85,3.72c3.74-3.82,3.51-10.57-0.41-14.78
		c-4.1-4.4-11.1-4.78-15.66-0.86c-4.71,4.05-5.35,10.87-1.45,15.7c0.42-0.7,0.79-1.42,1.27-2.05
		C71.26,58.48,71.86,57.94,72.54,57.23z M78.25,57.86c2.28,0.04,4.41-2.05,4.47-4.36c0.06-2.35-1.94-4.48-4.27-4.55
		c-2.43-0.08-4.55,2.01-4.54,4.47C73.91,55.85,75.84,57.82,78.25,57.86z"/>
	<path class="st0" d="M118.91,50.31c-5.1,0-10.2-0.01-15.3,0c-0.97,0-2.1,0.01-2.1-1.24c-0.01-1.24,1.11-1.25,2.09-1.25
		c10.26,0.01,20.53,0.01,30.79,0c0.98,0,2.06,0.04,2,1.33c-0.05,1.13-1.08,1.16-1.99,1.16C129.23,50.31,124.07,50.31,118.91,50.31z"
		/>
	<path class="st0" d="M114.62,60.4c-3.66,0-7.33,0-10.99,0c-0.96,0-2.09,0.02-2.12-1.22c-0.03-1.26,1.08-1.27,2.05-1.27
		c7.33,0.01,14.65,0,21.98,0c0.94,0,2.1-0.1,2.1,1.2c0.01,1.43-1.24,1.28-2.22,1.28C121.82,60.4,118.22,60.4,114.62,60.4z"/>
	<path class="st0" d="M47.79,87.05c3.75-3.02,7.56-2.09,8.63,2.03c0.51,1.97-0.3,3.65-1.32,5.24c-1.49,2.35-4.14,4.82-7.37,6.91
		c-3.02-2.11-5.91-4.42-7.78-7.75c-1.05-1.88-1.44-3.83-0.22-5.81C41.68,84.51,44.24,84.3,47.79,87.05z"/>
	<path class="st0" d="M23.72,99.4c-2.3,0-4.6,0-6.9,0c-0.87,0-1.71-0.12-1.66-1.25c0.05-0.98,0.8-1.12,1.61-1.12
		c4.67,0.01,9.33,0.01,14,0c0.9,0,1.69,0.16,1.66,1.26c-0.03,1-0.81,1.11-1.61,1.11C28.45,99.4,26.08,99.4,23.72,99.4z"/>
	<path class="st0" d="M21.86,89.29c-1.68,0-3.35,0-5.03,0c-0.87,0-1.7-0.11-1.68-1.23c0.02-0.99,0.77-1.13,1.59-1.13
		c3.35,0.01,6.71,0.02,10.06-0.01c0.85-0.01,1.58,0.21,1.6,1.13c0.02,1.06-0.8,1.25-1.69,1.23C25.09,89.28,23.48,89.29,21.86,89.29z
		"/>
	<path class="st0" d="M180.67,38.33c-3.55-0.02-6.51-3.06-6.44-6.6c0.07-3.5,3-6.35,6.49-6.34c3.56,0.01,6.54,3.06,6.45,6.58
		C187.09,35.45,184.12,38.35,180.67,38.33z"/>
	<path class="st0" d="M154.03,31.85c0-3.59,2.95-6.52,6.52-6.47c3.5,0.05,6.35,2.94,6.36,6.45c0.01,3.57-3,6.55-6.53,6.48
		C156.87,38.26,154.03,35.36,154.03,31.85z"/>
</g>
</svg>
