<?xml version="1.0" encoding="utf-8"?>
<!-- Generator: Adobe Illustrator 25.4.1, SVG Export Plug-In . SVG Version: 6.00 Build 0)  -->
<svg version="1.1" id="Capa_1" xmlns="http://www.w3.org/2000/svg" xmlns:xlink="http://www.w3.org/1999/xlink" x="0px" y="0px"
	 viewBox="0 0 209 209" style="enable-background:new 0 0 209 209;" xml:space="preserve">
<style type="text/css">
	.st0{fill:#FFFFFF;}
	.st1{fill:#FBFBFB;}
	.st2{fill:#FDFDFD;}
	.st3{fill:#18365F;}
	.st4{fill:#033562;}
	.st5{fill:#17AF95;}
</style>
<g>
	<path class="st0" d="M90.65,28.68c3.47,1.08,5.88,3.18,6.45,6.92c0.17,1.16,0.03,2.37,0.03,3.5c0.69,0.35,1.27,0.2,1.82,0.2
		c9.93,0.01,19.86,0.02,29.79-0.01c0.99,0,1.73,0.22,2.46,0.96c10.52,10.58,21.07,21.13,31.63,31.67c0.53,0.53,0.91,1.01,0.91,1.85
		c-0.03,13.2-0.03,26.41-0.03,39.61c0,0.1-0.04,0.2-0.07,0.38c-1.67,0-3.36,0-5.21,0c0-12.33,0-24.67,0-37.14
		c-10.68,0-21.21,0-31.9,0c0-10.7,0-21.27,0-31.92c-9.81,0-19.46,0-29.15,0c-0.36,0.53-0.16,1.17-0.16,1.77
		c-0.01,21.21-0.01,42.42-0.01,63.63c0,5.92-3.12,9.06-9.01,9.06c-13.77,0-27.55,0-41.44,0c0,21.27,0,42.5,0,63.82
		c37.13,0,74.32,0,111.62,0c0-10.56,0-21.09,0-31.74c1.79,0,3.47,0,5.25,0c0,12.3,0,24.65,0,37.07c-40.73,0-81.46,0-122.28,0
		c0-23.01,0-45.97,0-68.99c-1.4-0.32-2.75-0.13-4.07-0.15c-2.13-0.03-4.26,0.01-6.39-0.01c-4.84-0.05-8.21-3.42-8.22-8.27
		c-0.01-18.45-0.01-36.91-0.01-55.36c0-5.72,0-11.44,0-17.16c0-5.64,1.39-7.69,6.55-9.7C49.68,28.68,70.16,28.68,90.65,28.68z
		 M27.95,73.92c0,12.11,0,24.22,0,36.33c0,2.77,0.83,3.6,3.64,3.6c18.87,0,37.74,0,56.61,0c2.86,0,3.67-0.82,3.67-3.73
		c0-24.12,0-48.24,0-72.36c0-2.98-0.8-3.77-3.8-3.77c-18.77,0-37.53,0-56.3,0c-3.07,0-3.82,0.77-3.82,3.9
		C27.95,49.9,27.95,61.91,27.95,73.92z M131.9,48.84c0,7.44,0,14.89,0,22.32c7.52,0,14.94,0,22.35,0
		C146.76,63.67,139.32,56.25,131.9,48.84z"/>
	<path class="st0" d="M182.36,121.02c-1.41,3.54-4.36,5.81-6.93,8.39c-13.39,13.43-26.81,26.83-40.21,40.25
		c-0.82,0.82-1.71,1.47-2.77,1.95c-4.11,1.85-8.21,3.72-12.28,5.64c-1.3,0.62-2.5,0.78-3.57-0.31c-1.08-1.09-0.89-2.34-0.25-3.59
		c0.02-0.05,0.06-0.09,0.08-0.13c2.09-4.51,3.64-9.4,6.43-13.42c2.77-3.99,6.78-7.13,10.27-10.62
		c11.72-11.73,23.47-23.41,35.14-35.18c5-5.04,12.83-2.2,13.81,3.61c0.02,0.11,0.19,0.2,0.29,0.3
		C182.36,118.94,182.36,119.98,182.36,121.02z M161.06,128.75c-10.76,10.76-21.41,21.51-32.19,32.12c-2.47,2.43-3.19,5.61-4.69,8.5
		c3.21-1.49,6.48-2.55,9.08-5.22c9.88-10.12,19.95-20.05,29.95-30.04c0.55-0.55,1.19-1.01,1.74-1.48
		C163.57,131.25,162.36,130.04,161.06,128.75z M174.36,122.97c1.1-1.36,3-2.16,2.49-4.37c-0.25-1.07-0.97-1.74-2.01-1.92
		c-2.15-0.37-2.99,1.42-4.08,2.41C171.99,120.42,173.15,121.67,174.36,122.97z M165.22,124.69c1.22,1.24,2.43,2.48,3.47,3.53
		c0.52-0.47,1.1-1.01,1.52-1.39c-1.16-1.17-2.35-2.36-3.62-3.64C166.15,123.68,165.64,124.24,165.22,124.69z"/>
	<path class="st0" d="M110.47,151.97c-0.81,15.18-13.18,26.58-27.96,25.76c-14.91-0.83-26.08-13.44-25.22-28.46
		c0.81-14.19,13.63-25.59,27.84-24.76C99.75,125.38,111.23,137.81,110.47,151.97z M105.16,151.15c0.03-11.72-9.56-21.33-21.28-21.34
		c-11.72-0.01-21.31,9.57-21.32,21.29c-0.01,11.73,9.55,21.33,21.27,21.34C95.55,172.46,105.13,162.88,105.16,151.15z"/>
	<path class="st0" d="M150.38,106c0,1.72,0,3.37,0,5.11c-10.63,0-21.21,0-31.86,0c0-1.69,0-3.34,0-5.11
		C129.07,106,139.64,106,150.38,106z"/>
	<path class="st0" d="M150.37,95.32c0,1.71,0,3.35,0,5.11c-10.6,0-21.21,0-31.87,0c0-1.69,0-3.34,0-5.11
		C129.07,95.32,139.63,95.32,150.37,95.32z"/>
	<path class="st0" d="M118.5,121.79c0-1.81,0-3.45,0-5.17c10.62,0,21.19,0,31.85,0c0,1.73,0,3.41,0,5.17
		C139.73,121.79,129.18,121.79,118.5,121.79z"/>
	<path class="st0" d="M150.36,84.68c0,1.68,0,3.32,0,5.08c-10.6,0-21.19,0-31.85,0c0-1.67,0-3.32,0-5.08
		C129.1,84.68,139.69,84.68,150.36,84.68z"/>
	<path class="st0" d="M107.85,111.12c0-1.76,0-3.41,0-5.16c1.72,0,3.4,0,5.19,0c0,1.69,0,3.38,0,5.16
		C111.37,111.12,109.69,111.12,107.85,111.12z"/>
	<path class="st0" d="M107.85,95.26c1.78,0,3.42,0,5.17,0c0,1.71,0,3.39,0,5.17c-1.68,0-3.41,0-5.17,0
		C107.85,98.73,107.85,97.07,107.85,95.26z"/>
	<path class="st0" d="M113.03,121.82c-1.73,0-3.37,0-5.12,0c0-1.72,0-3.4,0-5.18c1.64,0,3.33,0,5.12,0
		C113.03,118.31,113.03,119.99,113.03,121.82z"/>
	<path class="st0" d="M113.06,89.82c-1.8,0-3.45,0-5.17,0c0-1.74,0-3.43,0-5.19c1.73,0,3.42,0,5.17,0
		C113.06,86.37,113.06,88.05,113.06,89.82z"/>
	<path class="st0" d="M89.05,55.2c-19.44,0-38.85,0-58.33,0c0-6.14,0-12.2,0-18.39c19.39,0,38.8,0,58.33,0
		C89.05,42.82,89.05,48.93,89.05,55.2z M83.78,42.08c-16,0-31.83,0-47.72,0c0,2.63,0,5.2,0,7.77c15.96,0,31.83,0,47.72,0
		C83.78,47.23,83.78,44.7,83.78,42.08z"/>
	<path class="st0" d="M86.55,103.53c-0.08,1.1,0.16,2.41-0.22,3.68c-0.65,2.2-2.08,3.59-4.36,3.87c-2.26,0.27-4.56,0.26-6.83,0.01
		c-2.58-0.28-4.41-2.3-4.53-4.92c-0.09-1.86-0.07-3.73-0.02-5.6c0.08-3.11,2.17-5.23,5.29-5.36c1.66-0.07,3.32-0.04,4.98-0.01
		c3.5,0.07,5.65,2.27,5.69,5.81C86.56,101.79,86.55,102.57,86.55,103.53z M75.99,100.6c0,1.78,0,3.46,0,5.18c1.77,0,3.45,0,5.15,0
		c0-1.76,0-3.43,0-5.18C79.42,100.6,77.78,100.6,75.99,100.6z"/>
	<path class="st0" d="M51.94,103.25c0-0.83-0.01-1.66,0-2.49c0.04-3.2,2.11-5.4,5.28-5.54c1.81-0.08,3.63-0.09,5.44,0.01
		c3.1,0.16,5.17,2.36,5.22,5.45c0.03,1.71,0.03,3.42,0,5.13c-0.05,2.96-2.02,5.13-4.98,5.34c-1.96,0.13-3.94,0.13-5.91,0.01
		c-3.04-0.19-5-2.36-5.05-5.42C51.93,104.91,51.94,104.08,51.94,103.25z M57.33,100.6c0,1.79,0,3.47,0,5.2c1.77,0,3.46,0,5.16,0
		c0-1.76,0-3.45,0-5.2C60.78,100.6,59.14,100.6,57.33,100.6z"/>
	<path class="st0" d="M49.21,103.19c0,1.04,0.05,2.08-0.01,3.11c-0.15,2.44-1.92,4.46-4.34,4.77c-2.37,0.31-4.77,0.3-7.14,0.01
		c-2.58-0.32-4.37-2.48-4.44-5.19c-0.05-1.71-0.04-3.42-0.01-5.13c0.06-3.23,2.22-5.43,5.48-5.53c1.61-0.05,3.22-0.03,4.82-0.01
		c3.47,0.06,5.59,2.19,5.65,5.65c0.01,0.78,0,1.56,0,2.33C49.23,103.19,49.22,103.19,49.21,103.19z M43.85,100.65
		c-1.86,0-3.53,0-5.21,0c0,1.76,0,3.41,0,5.1c1.77,0,3.48,0,5.21,0C43.85,103.99,43.85,102.34,43.85,100.65z"/>
	<path class="st0" d="M70.58,84.56c0-0.88-0.03-1.76,0-2.64c0.11-3.07,2.15-5.17,5.18-5.28c1.86-0.07,3.74-0.07,5.6,0
		c2.87,0.11,4.98,2.14,5.15,5.01c0.11,1.91,0.1,3.84,0.01,5.75c-0.14,2.98-2.35,5.07-5.36,5.17c-1.71,0.05-3.42,0.05-5.13,0.01
		c-3.19-0.08-5.33-2.21-5.44-5.38C70.56,86.32,70.58,85.44,70.58,84.56z M81.12,87.21c0-1.84,0-3.52,0-5.17c-1.79,0-3.47,0-5.11,0
		c0,1.78,0,3.45,0,5.17C77.76,87.21,79.39,87.21,81.12,87.21z"/>
	<path class="st0" d="M49.23,84.64c0,0.88,0.03,1.76,0,2.64c-0.11,3.01-2.2,5.16-5.21,5.29c-1.81,0.07-3.63,0.07-5.44,0
		c-3.05-0.12-5.21-2.34-5.29-5.4c-0.04-1.71-0.04-3.42,0-5.13c0.07-3.17,2.22-5.32,5.4-5.41c1.71-0.05,3.42-0.04,5.13,0
		c3.3,0.08,5.35,2.19,5.41,5.53C49.25,82.98,49.23,83.81,49.23,84.64C49.23,84.64,49.23,84.64,49.23,84.64z M43.83,82.06
		c-1.82,0-3.5,0-5.12,0c0,1.8,0,3.47,0,5.14c1.76,0,3.4,0,5.12,0C43.83,85.46,43.83,83.78,43.83,82.06z"/>
	<path class="st0" d="M41.32,57.98c0.93,0,1.87-0.03,2.8,0.01c2.83,0.1,4.98,2.2,5.09,5.05c0.07,1.92,0.07,3.84,0,5.75
		c-0.1,2.92-2.27,5.05-5.18,5.12c-1.81,0.05-3.63,0.04-5.44,0c-2.9-0.06-5.15-2.18-5.28-5.06c-0.09-1.97-0.1-3.95,0.01-5.91
		c0.16-2.81,2.39-4.88,5.21-4.96C39.45,57.96,40.38,57.98,41.32,57.98z M38.65,68.49c1.79,0,3.51,0,5.2,0c0-1.76,0-3.41,0-5.08
		c-1.78,0-3.5,0-5.2,0C38.65,65.18,38.65,66.82,38.65,68.49z"/>
	<path class="st0" d="M59.94,76.65c1.04,0,2.08-0.06,3.11,0.01c2.67,0.2,4.72,2.31,4.81,4.99c0.07,1.86,0.05,3.73,0.01,5.6
		c-0.06,2.9-2.14,5.13-5.04,5.3c-1.91,0.11-3.84,0.1-5.75,0.01c-2.99-0.14-5.08-2.37-5.13-5.37c-0.03-1.76-0.03-3.53,0-5.29
		c0.06-3.01,2.16-5.14,5.19-5.28c0.93-0.04,1.87-0.01,2.8-0.01C59.94,76.63,59.94,76.64,59.94,76.65z M57.33,87.19
		c1.76,0,3.44,0,5.17,0c0-1.77,0-3.46,0-5.18c-1.76,0-3.44,0-5.17,0C57.33,83.77,57.33,85.45,57.33,87.19z"/>
	<path class="st0" d="M78.62,57.98c0.83,0,1.66-0.01,2.49,0c3.08,0.06,5.3,2.17,5.42,5.24c0.07,1.81,0.07,3.63,0,5.44
		c-0.12,3.07-2.35,5.2-5.42,5.25c-1.76,0.03-3.53,0.04-5.29,0c-2.92-0.07-5.09-2.17-5.22-5.09c-0.08-1.81-0.06-3.63-0.02-5.44
		c0.08-3.29,2.23-5.36,5.54-5.4C76.96,57.97,77.79,57.98,78.62,57.98z M76.01,63.34c0,1.83,0,3.51,0,5.16c1.78,0,3.47,0,5.12,0
		c0-1.79,0-3.47,0-5.16C79.37,63.34,77.72,63.34,76.01,63.34z"/>
	<path class="st0" d="M51.95,65.87c0-0.99-0.04-1.97,0.01-2.96c0.14-2.64,2.27-4.81,4.91-4.91c2.02-0.08,4.05-0.08,6.07,0
		c2.64,0.1,4.8,2.25,4.92,4.9c0.09,2.02,0.09,4.05,0,6.07c-0.12,2.7-2.34,4.84-5.06,4.93c-1.87,0.06-3.74,0.05-5.6,0.01
		c-2.97-0.07-5.16-2.27-5.24-5.24C51.92,67.74,51.94,66.81,51.95,65.87C51.95,65.87,51.95,65.87,51.95,65.87z M62.51,63.39
		c-1.85,0-3.53,0-5.17,0c0,1.78,0,3.46,0,5.14c1.77,0,3.44,0,5.17,0C62.51,66.79,62.51,65.11,62.51,63.39z"/>
	<path class="st0" d="M81.24,138.04c0-0.98,0-1.86,0-2.82c1.77,0,3.46,0,5.28,0c0,0.96,0,1.87,0,2.74c5.6,1.86,7.96,4.2,7.83,7.84
		c-1.48,0-2.97,0-4.46,0c-0.39,0-0.6-0.16-0.87-0.48c-2.05-2.51-7.13-2.93-9.62-0.83c-1.1,0.92-1.1,1.78,0.05,2.67
		c1.33,1.03,2.91,1.3,4.55,1.32c2.32,0.02,4.53,0.53,6.54,1.73c5.26,3.13,5.3,9.27,0.07,12.45c-1.21,0.74-2.52,1.19-4.01,1.51
		c0,0.91,0,1.83,0,2.86c-1.8,0-3.48,0-5.31,0c0-0.89,0-1.8,0-2.77c-2.66-0.68-5.02-1.66-6.68-3.83c-0.85-1.1-1.27-2.35-1.42-3.94
		c1.61,0,3.15,0,4.69,0c0.33,0,0.55,0.12,0.79,0.38c2.31,2.45,6.41,3,9.21,1.26c1.68-1.04,1.68-2.3-0.03-3.32
		c-1.33-0.79-2.81-1-4.34-1.02c-2.49-0.04-4.82-0.67-6.89-2.1c-4.56-3.15-4.54-8.63,0.03-11.77
		C77.99,138.99,79.51,138.47,81.24,138.04z"/>
</g>
</svg>
