<?xml version="1.0" encoding="utf-8"?>
<!-- Generator: Adobe Illustrator 25.4.1, SVG Export Plug-In . SVG Version: 6.00 Build 0)  -->
<svg version="1.1" id="Capa_1" xmlns="http://www.w3.org/2000/svg" xmlns:xlink="http://www.w3.org/1999/xlink" x="0px" y="0px"
	 viewBox="0 0 209 209" style="enable-background:new 0 0 209 209;" xml:space="preserve">
<style type="text/css">
	.st0{fill:#FFFFFF;}
	.st1{fill:#FBFBFB;}
	.st2{fill:#FDFDFD;}
	.st3{fill:#18365F;}
	.st4{fill:#033562;}
	.st5{fill:#17AF95;}
</style>
<g>
	<path class="st0" d="M103.23,60.21c-5.49-0.01-10.77-0.26-16.05-0.7c-4.4-0.37-8.79-0.8-13.14-1.56c-1.15-0.2-1.62,0.1-2.09,1.13
		c-2.43,5.28-4.32,10.74-5.79,16.35c-0.08,0.32-0.17,0.64-0.25,0.96c-0.3,1.12-0.99,1.76-2.17,1.48c-1.21-0.28-1.53-1.24-1.23-2.32
		c0.69-2.56,1.42-5.1,2.2-7.63c1.12-3.64,2.61-7.13,4.21-10.67c-3.46-0.81-6.82-1.6-10.19-2.39c-0.64-0.15-1.34-0.21-1.91-0.52
		c-2.53-1.38-4.11-0.26-5.79,1.7c-5.06,5.91-9.32,12.31-12.41,19.47c-0.07,0.15-0.15,0.3-0.22,0.45c-0.75,1.65-1.64,2.21-2.7,1.61
		c-1.34-0.75-1.09-1.81-0.57-3c8.72-19.72,23.07-33.62,43.18-41.28c37.92-14.44,80.57,3.89,96.53,41.28
		c0.41,0.95,0.81,1.86-0.07,2.74c-0.98,0.99-2.36,0.53-3.07-1.09c-2.19-5.03-4.82-9.8-8.04-14.24c-1.98-2.73-4.13-5.33-6.47-7.75
		c-0.42-0.44-0.75-0.87-1.53-0.62c-4.57,1.46-9.25,2.49-13.95,3.44c-0.21,0.04-0.4,0.14-0.65,0.24c2.55,5.45,4.56,11.04,6.06,16.82
		c0.12,0.48,0.28,0.95,0.38,1.44c0.21,1.1-0.26,1.88-1.31,2.15c-1.09,0.28-1.83-0.32-2.14-1.34c-0.62-2.06-1.13-4.15-1.76-6.21
		c-1.18-3.85-2.66-7.59-4.35-11.25c-0.32-0.7-0.61-1.17-1.57-1.01c-9.61,1.57-19.28,2.25-29.01,2.33c-0.1,0-0.21,0.04-0.34,0.07
		c-0.42,0.46-0.22,1.04-0.22,1.56c-0.02,4.37-0.01,8.74-0.01,13.11c0,0.39,0.02,0.78-0.02,1.16c-0.09,1.08-0.67,1.84-1.76,1.83
		c-1.15-0.01-1.79-0.74-1.79-1.94c0-4.26,0-8.52,0-12.78C103.23,62.28,103.23,61.35,103.23,60.21z M103.17,32.14
		c-11.8,0.55-22.93,10.9-28.66,22.32c9.49,1.49,19.02,2.12,28.66,2.2C103.17,48.47,103.17,40.36,103.17,32.14z M135.47,54.47
		c-6.19-12.51-18.48-22.41-28.57-22.16c0,8.1,0,16.2,0,24.36C116.53,56.57,126.01,55.95,135.47,54.47z M123.62,34.78
		c1.29,1.1,2.62,2.16,3.87,3.32c4.57,4.24,8.18,9.22,11.22,14.64c0.27,0.48,0.36,1.21,1.25,1.02c4.44-0.91,8.89-1.76,13.45-3.19
		C144.62,42.76,134.83,37.38,123.62,34.78z M70.67,53.83c2.05-3.7,4.26-7.18,6.87-10.41c2.6-3.22,5.54-6.07,8.71-8.76
		c-11.17,2.78-20.93,8.12-29.67,15.94C61.38,52,65.92,52.99,70.67,53.83z"/>
	<path class="st0" d="M177.33,85.12c-48.27,0-96.44,0-144.68,0c0,14.11,0,28.15,0,42.23c0.51,0.38,1.14,0.17,1.72,0.17
		c23.08,0.01,46.15,0.01,69.23,0.01c0.44,0,0.88-0.01,1.32,0.01c1.12,0.04,1.79,0.68,1.82,1.74c0.02,1.09-0.7,1.7-1.78,1.81
		c-0.44,0.04-0.88,0.02-1.32,0.02c-23.24,0-46.48,0-69.73,0c-3.79,0-4.89-1.12-4.89-4.96c0-13.39,0-26.78,0-40.17
		c0-3.25,1.25-4.51,4.5-4.51c47.64,0,95.29,0,142.93,0c3.22,0,4.54,1.31,4.54,4.51c0.01,13.55,0.01,27.11,0,40.66
		c0,3.12-1.33,4.46-4.43,4.46c-11.76,0.01-23.52,0.01-35.28,0c-0.49,0-1-0.01-1.47-0.15c-0.84-0.24-1.25-0.86-1.21-1.75
		c0.04-0.9,0.56-1.44,1.39-1.62c0.48-0.11,0.99-0.05,1.48-0.05c11.37,0,22.74,0,34.12,0c0.55,0,1.09,0,1.73,0
		C177.33,113.39,177.33,99.31,177.33,85.12z"/>
	<path class="st0" d="M68.96,151.88c-2.21-4.74-3.93-9.38-5.33-14.15c-0.34-1.16-0.44-2.3,0.91-2.78c1.44-0.51,2.12,0.45,2.48,1.7
		c1.32,4.56,3,8.98,5,13.29c0.44,0.96,0.89,1.33,1.96,1.16c9.55-1.55,19.18-2.15,28.84-2.32c0.09,0,0.19-0.08,0.41-0.18
		c0-3.58,0-7.21,0-10.85c0-0.5-0.03-1,0.02-1.49c0.11-1.04,0.78-1.62,1.76-1.63c0.92-0.01,1.56,0.56,1.72,1.49
		c0.09,0.54,0.07,1.1,0.07,1.65c0,12.45,0,24.89,0,37.34c0,0.6,0,1.19,0,1.89c5.76-0.48,10.68-2.65,15.12-5.99
		c1.49-1.13,2.87-2.41,4.26-3.68c0.9-0.82,1.87-1.12,2.76-0.21c0.91,0.92,0.6,1.91-0.28,2.76c-1.62,1.55-3.28,3.06-5.06,4.46
		c11.25-2.64,20.95-8.19,29.82-15.92c-2.15-0.57-4.05-1.11-5.96-1.57c-1.26-0.3-2.09-0.95-1.72-2.31c0.34-1.25,1.34-1.46,2.52-1.13
		c2.28,0.63,4.59,1.18,6.84,1.88c0.93,0.29,1.5,0.1,2.15-0.59c4.88-5.1,8.96-10.77,12.2-17.04c0.28-0.54,0.52-1.09,0.81-1.63
		c0.54-1,1.35-1.55,2.44-1c1.15,0.58,1.25,1.56,0.7,2.67c-3.01,6.13-6.74,11.78-11.27,16.89c-11.43,12.89-25.54,21.37-42.44,24.52
		c-26.8,4.99-49.92-2.67-69.28-21.72c-5.64-5.56-10.12-12.09-13.6-19.26c-0.34-0.7-0.74-1.37-0.31-2.18c0.34-0.65,0.9-1.01,1.6-1
		c0.86,0.01,1.39,0.57,1.75,1.31c1.59,3.28,3.43,6.42,5.51,9.41c2.24,3.23,4.73,6.25,7.46,9.08c0.42,0.44,0.76,0.92,1.52,0.68
		C59.06,153.95,63.88,152.87,68.96,151.88z M74.65,154.54c5.64,11.63,17.69,22.2,28.51,22.28c0-8.1,0-16.21,0-24.42
		C93.56,152.4,84.1,153.13,74.65,154.54z M86.12,174.29c-6.34-4.99-11.16-11.18-14.97-18.18c-0.53-0.98-1.18-0.79-1.91-0.65
		c-3.68,0.71-7.35,1.44-10.94,2.53c-0.47,0.14-1.11-0.01-1.42,0.67C65.43,166.15,75.06,171.56,86.12,174.29z"/>
	<path class="st0" d="M133.77,141.95c2.17,3.77,4.26,7.4,6.34,11.04c1.68,2.93,1.25,4.61-1.62,6.28c-1.62,0.94-3.23,1.89-4.87,2.8
		c-2.3,1.29-4.12,0.81-5.44-1.46c-2.22-3.8-4.4-7.62-6.67-11.56c-1.33,1.08-2.56,2.07-3.79,3.08c-1.17,0.96-2.45,1.27-3.85,0.61
		c-1.37-0.65-2.02-1.78-2.07-3.31c-0.31-8.73-0.63-17.47-0.98-26.2c-0.07-1.61,0.27-3,1.72-3.85c1.51-0.88,2.93-0.46,4.34,0.43
		c7.13,4.51,14.27,8.99,21.43,13.46c1.49,0.93,2.65,2,2.44,3.96c-0.21,1.97-1.59,2.75-3.25,3.31
		C136.3,140.93,135.13,141.42,133.77,141.95z M115.32,149.49c1.7-1.39,3.14-2.56,4.58-3.73c2.24-1.84,2.79-1.73,4.26,0.81
		c2.42,4.19,4.85,8.38,7.32,12.65c2.09-1.22,4.07-2.37,6.09-3.55c-2.58-4.48-5.08-8.82-7.57-13.17c-1.05-1.83-0.75-2.64,1.2-3.39
		c1.93-0.75,3.87-1.48,6.04-2.31c-7.71-4.85-15.19-9.55-22.89-14.39C114.68,131.53,114.99,140.34,115.32,149.49z"/>
	<path class="st0" d="M129.58,102.61c-1.72,4.3-3.43,8.53-5.09,12.79c-0.36,0.92-0.82,1.52-1.87,1.52c-1,0-1.47-0.64-1.79-1.45
		c-2.22-5.57-4.43-11.15-6.63-16.73c-0.28-0.71-0.63-1.44-0.1-2.2c0.41-0.59,0.94-0.93,1.67-0.85c0.88,0.09,1.33,0.7,1.63,1.46
		c1.47,3.68,2.93,7.37,4.4,11.05c0.24,0.6,0.5,1.19,0.88,2.1c1.25-3.12,2.39-5.97,3.52-8.82c0.53-1.33,1.06-2.66,1.57-4
		c0.36-0.96,0.73-1.85,2.01-1.82c1.2,0.02,1.54,0.87,1.89,1.76c1.56,3.94,3.12,7.88,4.68,11.82c0.1,0.25,0.23,0.48,0.48,1
		c1.56-3.89,3.02-7.53,4.48-11.17c0.25-0.61,0.47-1.23,0.72-1.85c0.44-1.08,1.13-1.89,2.38-1.42c1.27,0.49,1.43,1.48,0.93,2.72
		c-1.96,4.85-3.88,9.72-5.81,14.58c-0.28,0.72-0.59,1.42-0.84,2.15c-0.32,0.96-0.79,1.7-1.95,1.67c-1.06-0.03-1.45-0.72-1.8-1.61
		c-1.53-3.95-3.12-7.88-4.72-11.81C130.11,103.22,130.15,102.82,129.58,102.61z"/>
	<path class="st0" d="M59.03,102.3c-1.79,4.48-3.48,8.67-5.12,12.88c-0.36,0.94-0.73,1.73-1.89,1.74c-1.15,0.01-1.53-0.75-1.91-1.7
		c-2.09-5.34-4.24-10.65-6.38-15.97c-0.12-0.31-0.27-0.61-0.37-0.92c-0.34-1.07-0.22-2.04,0.92-2.5c1.13-0.45,1.92,0.08,2.36,1.16
		c0.77,1.89,1.52,3.78,2.28,5.68c0.98,2.44,1.96,4.89,3.08,7.66c1.8-4.5,3.5-8.65,5.12-12.83c0.39-0.99,0.74-1.85,1.99-1.82
		c1.17,0.02,1.5,0.85,1.86,1.77c1.64,4.18,3.33,8.35,5.15,12.88c1.51-3.76,2.88-7.15,4.25-10.55c0.31-0.77,0.62-1.53,0.91-2.31
		c0.44-1.19,1.09-2.21,2.54-1.63c1.42,0.56,1.26,1.72,0.78,2.93c-2,4.96-3.97,9.93-5.94,14.89c-0.2,0.51-0.39,1.03-0.58,1.54
		c-0.35,0.9-0.72,1.73-1.91,1.74c-1.19,0.01-1.59-0.79-1.95-1.7c-1.56-3.95-3.12-7.89-4.68-11.84
		C59.42,103.15,59.3,102.91,59.03,102.3z"/>
	<path class="st0" d="M87.33,110.32c1.82-4.54,3.52-8.71,5.15-12.9c0.36-0.93,0.7-1.74,1.87-1.76c1.25-0.02,1.6,0.85,1.99,1.84
		c1.62,4.16,3.3,8.29,4.98,12.48c0.68-0.33,0.68-1,0.89-1.51c1.46-3.57,2.88-7.16,4.31-10.74c0.73-1.82,1.58-2.46,2.68-1.9
		c1.58,0.81,1.07,2.07,0.58,3.29c-2.17,5.42-4.36,10.84-6.49,16.28c-0.36,0.92-0.82,1.53-1.87,1.52c-1.08-0.01-1.49-0.74-1.83-1.61
		c-1.67-4.25-3.35-8.5-5.16-13.07c-0.78,1.92-1.45,3.53-2.09,5.16c-1.03,2.61-2.05,5.23-3.08,7.85c-0.36,0.91-0.77,1.7-1.96,1.68
		c-1.1-0.02-1.51-0.75-1.85-1.6c-2.13-5.38-4.26-10.76-6.39-16.14c-0.12-0.31-0.24-0.62-0.36-0.93c-0.44-1.11-0.14-2.01,0.95-2.45
		c1.15-0.46,1.93,0.16,2.35,1.2c1.47,3.63,2.9,7.27,4.35,10.9C86.62,108.58,86.89,109.24,87.33,110.32z"/>
	<path class="st0" d="M156.23,106.2c0-5.03,0.01-10.06-0.01-15.09c0-1.27,0.18-2.43,1.74-2.46c1.56-0.03,1.84,1.11,1.84,2.39
		c0,10.17,0,20.34,0,30.51c0,1.28-0.29,2.42-1.85,2.38c-1.57-0.04-1.73-1.21-1.73-2.48C156.24,116.37,156.23,111.29,156.23,106.2z"
		/>
	<path class="st0" d="M150.01,115.07c0.03,1.46-1.07,2.67-2.5,2.74c-1.44,0.07-2.78-1.21-2.78-2.67c0-1.42,1.18-2.59,2.63-2.61
		C148.84,112.51,149.98,113.6,150.01,115.07z"/>
</g>
</svg>
