<?xml version="1.0" encoding="utf-8"?>
<!-- Generator: Adobe Illustrator 25.4.1, SVG Export Plug-In . SVG Version: 6.00 Build 0)  -->
<svg version="1.1" id="Capa_1" xmlns="http://www.w3.org/2000/svg" xmlns:xlink="http://www.w3.org/1999/xlink" x="0px" y="0px"
	 viewBox="0 0 209 209" style="enable-background:new 0 0 209 209;" xml:space="preserve">
<style type="text/css">
	.st0{fill:#FFFFFF;}
	.st1{fill:#FBFBFB;}
	.st2{fill:#FDFDFD;}
	.st3{fill:#18365F;}
	.st4{fill:#033562;}
	.st5{fill:#17AF95;}
</style>
<g>
	<path class="st0" d="M69.59,192.73c-0.79-0.81-1.13-1.73-1.06-2.9c0.1-1.59,0.03-3.2,0.03-4.79c-0.62-0.43-1.26-0.22-1.86-0.22
		c-15.65-0.01-31.3-0.01-46.95-0.01c-2.68,0-3.12-0.43-3.12-3.05c0-7.51-0.01-15.02,0-22.53c0.01-7.12,3.7-12.45,10.39-15.04
		c1.6-0.62,3.2-1.22,4.8-1.84c2.42-0.93,2.42-0.94,2.23-3.78c-0.85-0.15-1.74-0.27-2.61-0.46c-7.06-1.55-11.98-7.52-12.05-14.75
		c-0.07-6.25,0.15-12.5-0.06-18.74c-0.39-11.57,7.65-20.48,17.02-23.68c6.73-2.3,13.29-1.97,19.54,1.63
		c0.92,0.53,1.94,0.66,2.91,0.98c9.77,3.21,16,11.74,16.17,22.35c0.09,5.67,0.1,11.35,0,17.03c-0.16,8.72-6.06,14.88-14.72,15.52
		c-0.16,0.01-0.32,0.07-0.47,0.1c-0.55,2.76-0.52,2.68,2.01,3.66c3.92,1.52,8.18,2.28,11.58,5.25c2.26-2.37,5.05-3.74,8.05-4.78
		c2.97-1.03,5.89-2.17,8.91-3.29c0-2.92-0.02-5.78,0.01-8.64c0.01-0.67-0.32-1.01-0.78-1.4c-6.72-5.58-9.98-12.79-10.01-21.49
		c-0.01-3.27,0.06-6.54-0.08-9.8c-0.49-11.74,8.88-20.46,18.59-22.3c5.14-0.97,10.01-0.31,14.6,2.3c0.78,0.44,1.71,0.6,2.58,0.88
		c8.52,2.75,14.44,10.42,14.59,19.41c0.1,5.76,0.64,11.58-0.99,17.26c-1.79,6.23-5.27,11.26-10.65,14.9
		c-0.82,0.55-1.11,1.12-1.08,2.08c0.07,2.17,0.02,4.35,0.02,6.57c6.09,2.92,13.25,3.36,18.63,8.22c3.56-3.21,8.32-3.99,12.5-5.99
		c0-0.94,0-1.85,0-2.86c-3.18-0.26-6.08-1.18-8.59-3.12c-3.85-2.98-6.01-6.89-6.07-11.78c-0.09-6.99-0.12-13.99-0.01-20.98
		c0.15-9.75,7.61-18.92,17.84-22.01c6.43-1.94,12.67-1.5,18.57,1.89c0.92,0.53,1.93,0.68,2.91,0.99
		c9.91,3.19,16.17,11.94,16.24,22.82c0.04,5.27,0.02,10.55,0,15.82c-0.03,9.35-5.49,15.35-14.81,16.3c-0.16,0.02-0.31,0.1-0.46,0.15
		c-0.37,2.74-0.37,2.73,2.02,3.57c2.16,0.76,4.31,1.51,6.46,2.3c5.54,2.05,8.97,5.93,10.12,11.77c0.03,0.14,0.19,0.24,0.29,0.36
		c0,9.06,0,18.12,0,27.17c-0.86,0.84-1.88,1.05-3.07,1.05c-15.67-0.03-31.35-0.03-47.02-0.01c-0.6,0-1.25-0.22-1.84,0.22
		c0,1.6-0.08,3.2,0.03,4.79c0.07,1.17-0.28,2.08-1.06,2.89C116.37,192.73,92.98,192.73,69.59,192.73z M85.83,188.91
		c0-5.82,0-11.49,0-17.16c0-1.3,0.45-2.35,1.89-2.36c1.43-0.01,1.9,0.99,1.89,2.33c-0.02,4.3-0.01,8.6-0.01,12.9
		c0,1.41,0,2.83,0,4.25c10.14,0,20.08,0,30.15,0c0-5.46,0-10.84,0-16.21c0-2.37,0.48-3.25,1.8-3.29c1.38-0.04,1.97,0.95,1.97,3.35
		c0,5.37,0,10.74,0,16.14c4.58,0,9.01,0,13.47,0c0-10.13,0.13-20.16-0.06-30.18c-0.08-4.52-2.35-8.19-6.35-10.37
		c-4.52-2.46-9.61-3.47-14.43-5.32c-2.13,3.97-3.99,7.84-6.22,11.49c-2.48,4.07-4.1,8.25-3.41,13.1c0.01,0.06,0,0.11,0,0.17
		c0,1.29-0.38,2.33-1.89,2.32c-1.52-0.01-1.87-1.07-1.86-2.35c0-1.89-0.06-3.79,0.04-5.67c0.07-1.38-0.29-2.52-1.07-3.67
		c-3.16-4.63-6.24-9.32-9.36-13.98c-0.31-0.46-0.5-1.03-1.15-1.3c-3.33,1.23-6.72,2.45-10.08,3.73c-5.63,2.15-8.81,6.78-8.82,12.82
		c-0.02,9.34-0.01,18.68,0.01,28.03c0,0.43-0.2,0.92,0.21,1.26C76.93,188.91,81.28,188.91,85.83,188.91z M188.93,180.99
		c0-7.72,0.16-15.27-0.06-22.82c-0.13-4.47-2.57-7.82-6.65-9.65c-2.96-1.32-6.09-2.24-9.22-3.37c-1.4,2.13-2.74,4.17-4.09,6.22
		c-1.69,2.58-4.03,4.97-4.89,7.81c-0.86,2.84-0.24,6.13-0.27,9.22c0,0.17,0,0.34,0,0.52c0.01,1.36-0.43,2.48-1.98,2.44
		c-1.45-0.04-1.81-1.11-1.8-2.42c0.04-2.81,0-5.61,0.03-8.42c0.01-0.78-0.17-1.41-0.65-2.06c-3.07-4.13-6.12-8.28-9.14-12.46
		c-0.52-0.71-0.95-0.95-1.83-0.59c-2.21,0.93-4.47,1.72-6.7,2.62c-1.32,0.53-2.54,1.24-3.55,2.41c2.33,3.62,2.74,7.59,2.67,11.72
		c-0.1,5.78-0.03,11.57-0.01,17.36c0,0.49-0.2,1.03,0.2,1.47C156.93,180.99,172.84,180.99,188.93,180.99z M68.55,180.96
		c0-0.62,0-1.18,0-1.74c0-5.73,0.07-11.46-0.02-17.19c-0.06-4.05,0.25-7.98,2.51-11.61c-3.66-3-8.2-3.51-12.2-5.3
		c-2.92,4.46-5.69,8.72-8.52,12.96c-0.54,0.81-0.76,1.6-0.74,2.56c0.04,2.69,0.02,5.39,0.01,8.08c-0.01,1.77-0.71,2.76-1.95,2.66
		c-1.56-0.13-1.85-1.22-1.83-2.57c0.04-2.75,0.02-5.5,0.01-8.25c0-0.56,0.09-1.12-0.3-1.64c-3.4-4.6-6.77-9.21-10.22-13.9
		c-2.95,1.17-5.92,2.09-8.66,3.48c-3.98,2.02-6.09,5.46-6.23,9.96c-0.09,3.09-0.02,6.19-0.02,9.28c0,4.4,0,8.79,0,13.24
		C36.5,180.96,52.45,180.96,68.55,180.96z M109.95,94.74c-0.49,0.52-0.88,0.93-1.27,1.34c-3.43,3.53-7.7,5.35-12.45,4.27
		c-6.27-1.42-14.77,6.02-12.3,13.68c2.66,8.26,7.49,14.21,16.02,16.3c8.02,1.96,14.94-0.56,20.42-6.72
		c3.45-3.87,5.22-8.5,5.62-13.62C118.98,106.6,113.7,101.62,109.95,94.74z M23.26,108.44c9.4-1.3,17.27-5.38,23.31-12.79
		c2.14-2.62,2.74-2.64,4.98-0.05c5.75,6.63,11.84,12.92,18.23,18.93c0.38,0.36,0.69,0.9,1.35,0.96c0-3.68,0.19-7.29-0.04-10.87
		c-0.46-7.31-4.01-12.82-10.5-16.19c-3.06-1.59-6.32-2.96-9.58-3.99C37.11,80.06,21.74,89.47,23.26,108.44z M137.44,108.44
		c9.65-1.37,17.56-5.59,23.61-13.16c1.7-2.13,2.55-2.14,4.31-0.1c5.81,6.72,11.98,13.1,18.44,19.2c0.42,0.39,0.72,1.04,1.52,0.99
		c0-3.48,0.16-6.92-0.03-10.34c-0.52-9.3-6.05-15.92-15.08-18.3c-0.49-0.13-0.97-0.33-1.41-0.59c-6.12-3.62-12.49-3.75-18.95-1.19
		C140,88.83,136.49,100.93,137.44,108.44z M49.12,98.55c-4.05,4.69-8.75,8.25-14.33,10.61c-0.62,0.26-0.81,0.78-0.95,1.33
		c-1.61,5.97-0.95,11.6,2.78,16.64c5.02,6.78,13.79,7.77,19.83,2.27c4.84-4.42,6.23-10.07,5.47-16.4c-0.07-0.56-0.26-1.08-0.7-1.52
		C57.09,107.34,53.1,103.09,49.12,98.55z M163.29,98.55c-4.07,4.7-8.77,8.26-14.34,10.62c-0.62,0.26-0.79,0.78-0.94,1.34
		c-1.61,5.97-0.93,11.59,2.79,16.63c4.05,5.48,10.7,7.29,16.43,4.54c6.88-3.3,10.15-11.45,8.77-19.02
		c-0.08-0.47-0.28-0.84-0.62-1.18C171.26,107.34,167.27,103.08,163.29,98.55z M83.32,101.62c5.11-4.59,7.17-5.32,13.92-4.87
		c3.76,0.25,6.84-1.04,9.25-3.91c0.66-0.79,1.31-1.59,1.99-2.37c1.52-1.77,2.89-1.58,3.87,0.57c1.22,2.67,2.72,5.16,4.62,7.4
		c2.53,2.98,5.48,5.45,9.1,7.31c0-2.71,0.1-5.23-0.02-7.74c-0.35-7.48-5.62-13.84-12.92-15.71c-0.78-0.2-1.52-0.45-2.22-0.86
		c-4.64-2.69-9.55-3-14.57-1.35C87.09,83.12,82.49,90.72,83.32,101.62z M94.07,132.32c0,2.12,0.08,3.96-0.02,5.78
		c-0.08,1.39,0.33,2.51,1.11,3.66c2.91,4.25,5.72,8.57,8.59,12.85c0.32,0.48,0.54,1.09,1.16,1.39c2.1-3.91,3.93-7.88,6.27-11.53
		c2.26-3.54,2.4-7.26,2.03-11.27C106.81,135.41,100.51,135.18,94.07,132.32z M161.76,155.39c2.71-4.13,5.3-8.08,7.89-12.04
		c0.12-0.19,0.25-0.41,0.26-0.62c0.02-2.65,0.01-5.3,0.01-8.1c-6.18,3.03-12,2.66-17.86-0.94c0,2.85-0.01,5.46,0.01,8.07
		c0,0.26,0.13,0.56,0.28,0.78C155.44,146.76,158.54,150.99,161.76,155.39z M55.77,134.6c-2.95,1.49-5.9,2.23-9.05,2.06
		c-3.13-0.17-5.98-1.21-8.83-2.99c0,1.4,0.13,2.55-0.02,3.65c-0.45,3.39,0.61,6.15,2.82,8.76c2.46,2.9,4.57,6.1,6.92,9.29
		c2.69-4.1,5.26-8.01,7.83-11.92c0.23-0.35,0.34-0.7,0.34-1.12C55.76,139.82,55.77,137.32,55.77,134.6z M34.01,134.58
		c0.27-2.54,0.07-4.68-1.45-6.87c-3.01-4.36-3.67-9.41-3.15-14.62c0.07-0.66,0.47-1.31,0.13-2.01c-2.13,0.43-4.24,0.85-6.37,1.28
		c0,4.1-0.19,8.11,0.05,12.1C23.54,129.95,28.62,134.59,34.01,134.58z M137.34,112.35c0,4.11-0.15,8.07,0.04,12.01
		c0.26,5.52,5.6,10.44,10.85,10.17c0.1-2.31,0.33-4.51-1.36-6.6c-1.74-2.14-2.51-4.84-3.03-7.57c-0.58-3.07-0.45-6.13,0.06-9.31
		C141.65,111.49,139.55,111.91,137.34,112.35z M59.67,134.64c5.4-0.03,9.94-3.56,11.17-8.7c0.39-1.61,0.99-3.59,0.18-4.86
		c-1.2-1.87-3.19-3.22-5.1-5.03c-0.14,5.63-1.68,10.28-5.06,14.16C59.68,131.56,59.31,132.86,59.67,134.64z M173.81,134.6
		c5.65,0.14,10.67-4.14,11.37-9.64c0.17-1.35,0.72-2.98-0.05-4.01c-1.33-1.76-3.16-3.13-4.96-4.83c-0.59,6.59-1.9,10.42-5.12,14.05
		C173.86,131.52,173.45,132.82,173.81,134.6z"/>
	<path class="st0" d="M74.58,35.19c1.1,1.79,2.29,3.8,3.55,5.77c0.69,1.07,0.81,2.03,0.13,3.18c-0.95,1.63-1.67,3.38-2.17,5.21
		c-0.31,1.12-1.02,1.71-2.14,1.97c-2.34,0.54-4.66,1.12-7.07,1.7c0,3.3,0,6.54,0,9.9c2.33,0.59,4.69,1.24,7.07,1.75
		c1.17,0.25,1.81,0.88,2.11,1.96c0.51,1.82,1.22,3.58,2.16,5.21c0.66,1.15,0.51,2.12-0.17,3.19c-1.27,1.97-2.46,3.99-3.82,6.22
		c0.96,0.88,1.95,1.74,2.89,2.65c0.91,0.88,1.12,1.93,0.17,2.86c-0.96,0.94-1.98,0.65-2.87-0.23c-1.18-1.17-2.34-2.36-3.54-3.52
		c-0.92-0.89-1.04-1.83-0.36-2.92c1.21-1.94,2.34-3.93,3.59-5.85c0.46-0.72,0.28-1.25,0.12-2.01c-0.75-3.47-3.08-4.55-6.3-5.22
		c-5.48-1.15-4.9-0.31-4.9-6.17c0-2.92,0.03-5.85-0.01-8.77c-0.02-1.46,0.6-2.19,2.02-2.49c2.12-0.45,4.21-1.1,6.34-1.52
		c1-0.2,1.25-0.82,1.74-1.56c1.9-2.88,1.04-5.19-0.73-7.83c-3.24-4.84-3.13-3.98,0.87-7.97c2.03-2.03,4.09-4.02,6.08-6.08
		c1.05-1.08,2.07-1.24,3.35-0.43c1.83,1.17,3.73,2.22,5.56,3.39c0.75,0.48,1.34,0.33,2.17,0.16c3.43-0.71,4.54-2.96,5.2-6.14
		c1.18-5.66,0.49-4.98,6.28-5c2.81-0.01,5.62,0.08,8.43-0.03c1.79-0.07,2.61,0.72,2.95,2.38c0.4,1.96,0.97,3.88,1.38,5.84
		c0.19,0.92,0.68,1.32,1.49,1.81c2.91,1.76,5.28,1.17,8.02-0.68c4.83-3.27,3.97-3.15,8.12,0.96c2,1.98,3.96,3.99,5.99,5.93
		c1.1,1.05,1.24,2.07,0.43,3.35c-1.17,1.83-2.24,3.73-3.43,5.54c-0.5,0.76-0.31,1.34-0.13,2.17c0.75,3.4,2.98,4.51,6.18,5.13
		c5.76,1.11,4.96,0.64,4.99,6.1c0.02,2.92-0.04,5.85,0.02,8.77c0.03,1.54-0.64,2.31-2.1,2.62c-2.12,0.46-4.21,1.07-6.34,1.51
		c-0.9,0.19-1.17,0.76-1.63,1.45c-1.97,2.93-1.05,5.31,0.75,7.98c3.21,4.73,3,4.01-0.85,7.85c-0.69,0.69-1.36,1.4-2.1,2.03
		c-0.81,0.69-1.73,0.69-2.47-0.07c-0.77-0.79-0.87-1.78-0.09-2.62c1.09-1.17,2.28-2.24,3.48-3.41c-1.28-2.1-2.46-4.11-3.73-6.07
		c-0.73-1.12-0.86-2.13-0.14-3.33c0.93-1.57,1.62-3.28,2.11-5.05c0.33-1.18,1.03-1.8,2.24-2.06c2.34-0.5,4.66-1.12,7.02-1.7
		c0-3.28,0-6.48,0-9.91c-2.34-0.58-4.74-1.2-7.17-1.75c-1.07-0.24-1.73-0.83-2.02-1.86c-0.54-1.94-1.32-3.78-2.29-5.53
		c-0.54-0.97-0.43-1.82,0.14-2.73c1.3-2.07,2.56-4.18,3.76-6.15c-2.37-2.41-4.66-4.73-7.01-7.12c-1.99,1.2-4.01,2.36-5.97,3.62
		c-1.13,0.72-2.14,0.86-3.34,0.16c-1.63-0.95-3.4-1.63-5.22-2.14c-1.01-0.28-1.63-0.89-1.88-1.99c-0.53-2.39-1.17-4.75-1.78-7.18
		c-3.3,0-6.56,0-9.99,0c-0.52,2.1-1.12,4.24-1.56,6.4c-0.32,1.56-1,2.51-2.65,2.93c-1.53,0.39-3,1.1-4.42,1.83
		c-1.3,0.67-2.39,0.74-3.66-0.12c-1.89-1.27-3.9-2.38-5.81-3.52C79.31,30.35,77.04,32.68,74.58,35.19z"/>
	<path class="st0" d="M104.68,73.81C95.92,73.81,88.84,66.74,88.85,58c0.01-8.71,7.21-15.85,15.9-15.78
		c8.69,0.07,15.72,7.11,15.75,15.76C120.52,66.72,113.45,73.8,104.68,73.81z M104.67,70.04c6.65-0.01,12.03-5.36,12.04-11.97
		c0.01-6.62-5.33-12.02-11.96-12.09c-6.64-0.07-12.14,5.41-12.12,12.1C92.64,64.69,98.03,70.05,104.67,70.04z"/>
	<path class="st0" d="M107.09,175.83c-0.02,1.31-1.11,2.41-2.41,2.42c-1.36,0.01-2.49-1.18-2.43-2.56c0.06-1.35,1.12-2.32,2.49-2.29
		C106.1,173.43,107.11,174.47,107.09,175.83z"/>
</g>
</svg>
